%TF.GenerationSoftware,KiCad,Pcbnew,(5.1.7)-1*%
%TF.CreationDate,2021-03-15T08:37:38+01:00*%
%TF.ProjectId,SuperCap Small,53757065-7243-4617-9020-536d616c6c2e,rev?*%
%TF.SameCoordinates,Original*%
%TF.FileFunction,Copper,L4,Bot*%
%TF.FilePolarity,Positive*%
%FSLAX46Y46*%
G04 Gerber Fmt 4.6, Leading zero omitted, Abs format (unit mm)*
G04 Created by KiCad (PCBNEW (5.1.7)-1) date 2021-03-15 08:37:38*
%MOMM*%
%LPD*%
G01*
G04 APERTURE LIST*
%TA.AperFunction,ComponentPad*%
%ADD10C,3.150000*%
%TD*%
%TA.AperFunction,ComponentPad*%
%ADD11C,2.025000*%
%TD*%
%TA.AperFunction,ComponentPad*%
%ADD12R,2.025000X2.025000*%
%TD*%
%TA.AperFunction,ComponentPad*%
%ADD13O,9.000000X6.000000*%
%TD*%
%TA.AperFunction,ComponentPad*%
%ADD14R,1.500000X1.500000*%
%TD*%
%TA.AperFunction,ComponentPad*%
%ADD15C,1.500000*%
%TD*%
%TA.AperFunction,ComponentPad*%
%ADD16C,0.800000*%
%TD*%
%TA.AperFunction,ComponentPad*%
%ADD17C,2.200000*%
%TD*%
%TA.AperFunction,ComponentPad*%
%ADD18R,2.200000X2.200000*%
%TD*%
%TA.AperFunction,ComponentPad*%
%ADD19C,1.605000*%
%TD*%
%TA.AperFunction,ComponentPad*%
%ADD20C,1.230000*%
%TD*%
%TA.AperFunction,ViaPad*%
%ADD21C,0.800000*%
%TD*%
%TA.AperFunction,ViaPad*%
%ADD22C,1.200000*%
%TD*%
%TA.AperFunction,ViaPad*%
%ADD23C,1.000000*%
%TD*%
%TA.AperFunction,Conductor*%
%ADD24C,1.000000*%
%TD*%
%TA.AperFunction,Conductor*%
%ADD25C,14.000000*%
%TD*%
%TA.AperFunction,Conductor*%
%ADD26C,0.600000*%
%TD*%
%TA.AperFunction,Conductor*%
%ADD27C,12.000000*%
%TD*%
%TA.AperFunction,Conductor*%
%ADD28C,0.400000*%
%TD*%
%TA.AperFunction,Conductor*%
%ADD29C,2.000000*%
%TD*%
%TA.AperFunction,Conductor*%
%ADD30C,0.254000*%
%TD*%
%TA.AperFunction,Conductor*%
%ADD31C,0.100000*%
%TD*%
G04 APERTURE END LIST*
D10*
%TO.P,C28,4*%
%TO.N,/Supercaps/OVP_V3-_V4+*%
X276246000Y-125222000D03*
%TO.P,C28,3*%
%TO.N,Net-(C28-Pad3)*%
X259396000Y-134972000D03*
%TO.P,C28,2*%
%TO.N,Net-(C28-Pad2)*%
X259396000Y-115472000D03*
%TO.P,C28,1*%
%TO.N,/Supercaps/OVP_V2-_V3+*%
X253746000Y-125222000D03*
%TD*%
%TO.P,C34,4*%
%TO.N,/Supercaps/OVP_V6-_V7+*%
X390546000Y-125222000D03*
%TO.P,C34,3*%
%TO.N,Net-(C34-Pad3)*%
X373696000Y-134972000D03*
%TO.P,C34,2*%
%TO.N,Net-(C34-Pad2)*%
X373696000Y-115472000D03*
%TO.P,C34,1*%
%TO.N,/Supercaps/OVP_V5-_V6+*%
X368046000Y-125222000D03*
%TD*%
%TO.P,C25,4*%
%TO.N,GNDD*%
X177906000Y-89662000D03*
%TO.P,C25,3*%
%TO.N,Net-(C25-Pad3)*%
X194756000Y-79912000D03*
%TO.P,C25,2*%
%TO.N,Net-(C25-Pad2)*%
X194756000Y-99412000D03*
%TO.P,C25,1*%
%TO.N,/Supercaps/OVP_V11-_V12+*%
X200406000Y-89662000D03*
%TD*%
%TO.P,C33,4*%
%TO.N,/Supercaps/OVP_V8-_V9+*%
X330306000Y-89662000D03*
%TO.P,C33,3*%
%TO.N,Net-(C33-Pad3)*%
X347156000Y-79912000D03*
%TO.P,C33,2*%
%TO.N,Net-(C33-Pad2)*%
X347156000Y-99412000D03*
%TO.P,C33,1*%
%TO.N,/Supercaps/OVP_V7-_V8+*%
X352806000Y-89662000D03*
%TD*%
%TO.P,C32,4*%
%TO.N,/Supercaps/OVP_V5-_V6+*%
X352446000Y-125222000D03*
%TO.P,C32,3*%
%TO.N,Net-(C32-Pad3)*%
X335596000Y-134972000D03*
%TO.P,C32,2*%
%TO.N,Net-(C32-Pad2)*%
X335596000Y-115472000D03*
%TO.P,C32,1*%
%TO.N,/Supercaps/OVP_V4-_V5+*%
X329946000Y-125222000D03*
%TD*%
%TO.P,C31,4*%
%TO.N,/Supercaps/OVP_V9-_V10+*%
X292206000Y-89662000D03*
%TO.P,C31,3*%
%TO.N,Net-(C31-Pad3)*%
X309056000Y-79912000D03*
%TO.P,C31,2*%
%TO.N,Net-(C31-Pad2)*%
X309056000Y-99412000D03*
%TO.P,C31,1*%
%TO.N,/Supercaps/OVP_V8-_V9+*%
X314706000Y-89662000D03*
%TD*%
%TO.P,C27,4*%
%TO.N,/Supercaps/OVP_V11-_V12+*%
X216006000Y-89662000D03*
%TO.P,C27,3*%
%TO.N,Net-(C27-Pad3)*%
X232856000Y-79912000D03*
%TO.P,C27,2*%
%TO.N,Net-(C27-Pad2)*%
X232856000Y-99412000D03*
%TO.P,C27,1*%
%TO.N,/Supercaps/OVP_V10-_V11+*%
X238506000Y-89662000D03*
%TD*%
%TO.P,C24,4*%
%TO.N,/Supercaps/OVP_V1-_V2+*%
X200046000Y-125422000D03*
%TO.P,C24,3*%
%TO.N,Net-(C24-Pad3)*%
X183196000Y-135172000D03*
%TO.P,C24,2*%
%TO.N,Net-(C24-Pad2)*%
X183196000Y-115672000D03*
%TO.P,C24,1*%
%TO.N,OVP_POWER*%
X177546000Y-125422000D03*
%TD*%
D11*
%TO.P,J1,6*%
%TO.N,Net-(D13-Pad3)*%
X223750000Y-181000000D03*
%TO.P,J1,5*%
X227560000Y-181000000D03*
%TO.P,J1,4*%
%TO.N,GND*%
X231370000Y-181000000D03*
%TO.P,J1,3*%
X235180000Y-181000000D03*
%TO.P,J1,2*%
%TO.N,15V_global*%
X238990000Y-181000000D03*
D12*
%TO.P,J1,1*%
X242800000Y-181000000D03*
%TD*%
D10*
%TO.P,C30,4*%
%TO.N,/Supercaps/OVP_V4-_V5+*%
X314346000Y-125222000D03*
%TO.P,C30,3*%
%TO.N,Net-(C30-Pad3)*%
X297496000Y-134972000D03*
%TO.P,C30,2*%
%TO.N,Net-(C30-Pad2)*%
X297496000Y-115472000D03*
%TO.P,C30,1*%
%TO.N,/Supercaps/OVP_V3-_V4+*%
X291846000Y-125222000D03*
%TD*%
D13*
%TO.P,U1,5*%
%TO.N,OVP_POWER*%
X158360000Y-152400000D03*
%TO.P,U1,4*%
%TO.N,/Sheet6014032E/Current_TBM+*%
X148360000Y-152400000D03*
D14*
%TO.P,U1,1*%
%TO.N,3.3V*%
X155270000Y-173800000D03*
D15*
%TO.P,U1,3*%
%TO.N,Net-(R37-Pad1)*%
X151450000Y-173800000D03*
%TO.P,U1,2*%
%TO.N,GND*%
X153360000Y-173800000D03*
%TO.P,U1,5*%
%TO.N,OVP_POWER*%
%TA.AperFunction,ComponentPad*%
G36*
G01*
X154579047Y-151407477D02*
X154579047Y-151407477D01*
G75*
G02*
X154772523Y-151939047I-169047J-362523D01*
G01*
X154772523Y-151939047D01*
G75*
G02*
X154240953Y-152132523I-362523J169047D01*
G01*
X154240953Y-152132523D01*
G75*
G02*
X154047477Y-151600953I169047J362523D01*
G01*
X154047477Y-151600953D01*
G75*
G02*
X154579047Y-151407477I362523J-169047D01*
G01*
G37*
%TD.AperFunction*%
%TA.AperFunction,ComponentPad*%
G36*
G01*
X154579047Y-153392523D02*
X154579047Y-153392523D01*
G75*
G02*
X154047477Y-153199047I-169047J362523D01*
G01*
X154047477Y-153199047D01*
G75*
G02*
X154240953Y-152667477I362523J169047D01*
G01*
X154240953Y-152667477D01*
G75*
G02*
X154772523Y-152860953I169047J-362523D01*
G01*
X154772523Y-152860953D01*
G75*
G02*
X154579047Y-153392523I-362523J-169047D01*
G01*
G37*
%TD.AperFunction*%
D16*
X155160000Y-154060000D03*
X155160000Y-150740000D03*
X162310000Y-151770000D03*
X162310000Y-153030000D03*
X161560000Y-154060000D03*
X161560000Y-150740000D03*
X157690000Y-154450000D03*
X159030000Y-154450000D03*
X156360000Y-154450000D03*
X160360000Y-154450000D03*
X157690000Y-150350000D03*
X159030000Y-150350000D03*
X160360000Y-150350000D03*
X156360000Y-150350000D03*
%TO.P,U1,4*%
%TO.N,/Sheet6014032E/Current_TBM+*%
X151560000Y-154060000D03*
X151560000Y-150740000D03*
%TA.AperFunction,ComponentPad*%
G36*
G01*
X152479047Y-152667477D02*
X152479047Y-152667477D01*
G75*
G02*
X152672523Y-153199047I-169047J-362523D01*
G01*
X152672523Y-153199047D01*
G75*
G02*
X152140953Y-153392523I-362523J169047D01*
G01*
X152140953Y-153392523D01*
G75*
G02*
X151947477Y-152860953I169047J362523D01*
G01*
X151947477Y-152860953D01*
G75*
G02*
X152479047Y-152667477I362523J-169047D01*
G01*
G37*
%TD.AperFunction*%
%TA.AperFunction,ComponentPad*%
G36*
G01*
X152479047Y-152132523D02*
X152479047Y-152132523D01*
G75*
G02*
X151947477Y-151939047I-169047J362523D01*
G01*
X151947477Y-151939047D01*
G75*
G02*
X152140953Y-151407477I362523J169047D01*
G01*
X152140953Y-151407477D01*
G75*
G02*
X152672523Y-151600953I169047J-362523D01*
G01*
X152672523Y-151600953D01*
G75*
G02*
X152479047Y-152132523I-362523J-169047D01*
G01*
G37*
%TD.AperFunction*%
X145160000Y-154060000D03*
X145160000Y-150740000D03*
X144410000Y-151770000D03*
X146360000Y-154450000D03*
X147690000Y-154450000D03*
X149030000Y-154450000D03*
X150360000Y-154450000D03*
X146360000Y-150350000D03*
X147690000Y-150350000D03*
X149030000Y-150350000D03*
X150360000Y-150350000D03*
X144410000Y-153030000D03*
%TD*%
D10*
%TO.P,C26,4*%
%TO.N,/Supercaps/OVP_V2-_V3+*%
X238146000Y-125222000D03*
%TO.P,C26,3*%
%TO.N,Net-(C26-Pad3)*%
X221296000Y-134972000D03*
%TO.P,C26,2*%
%TO.N,Net-(C26-Pad2)*%
X221296000Y-115472000D03*
%TO.P,C26,1*%
%TO.N,/Supercaps/OVP_V1-_V2+*%
X215646000Y-125222000D03*
%TD*%
%TO.P,C29,4*%
%TO.N,/Supercaps/OVP_V10-_V11+*%
X254106000Y-89662000D03*
%TO.P,C29,3*%
%TO.N,Net-(C29-Pad3)*%
X270956000Y-79912000D03*
%TO.P,C29,2*%
%TO.N,Net-(C29-Pad2)*%
X270956000Y-99412000D03*
%TO.P,C29,1*%
%TO.N,/Supercaps/OVP_V9-_V10+*%
X276606000Y-89662000D03*
%TD*%
%TO.P,C35,4*%
%TO.N,/Supercaps/OVP_V7-_V8+*%
X368406000Y-89662000D03*
%TO.P,C35,3*%
%TO.N,Net-(C35-Pad3)*%
X385256000Y-79912000D03*
%TO.P,C35,2*%
%TO.N,Net-(C35-Pad2)*%
X385256000Y-99412000D03*
%TO.P,C35,1*%
%TO.N,/Supercaps/OVP_V6-_V7+*%
X390906000Y-89662000D03*
%TD*%
D17*
%TO.P,J4,9*%
%TO.N,/Sheet6014032E/Current_TBM+*%
X122240000Y-145640000D03*
%TO.P,J4,8*%
X119800000Y-145640000D03*
%TO.P,J4,7*%
X117360000Y-145640000D03*
%TO.P,J4,6*%
X122240000Y-138020000D03*
%TO.P,J4,5*%
X119800000Y-138020000D03*
%TO.P,J4,4*%
X117360000Y-138020000D03*
%TO.P,J4,3*%
X122240000Y-130400000D03*
%TO.P,J4,2*%
X119800000Y-130400000D03*
D18*
%TO.P,J4,1*%
X117360000Y-130400000D03*
%TD*%
%TO.P,J3,1*%
%TO.N,/Precharge/LOAD_INN*%
X117360000Y-87900000D03*
D17*
%TO.P,J3,2*%
X119800000Y-87900000D03*
%TO.P,J3,3*%
X122240000Y-87900000D03*
%TO.P,J3,4*%
%TO.N,Net-(J3-Pad4)*%
X117360000Y-95520000D03*
%TO.P,J3,5*%
%TO.N,Net-(J3-Pad5)*%
X119800000Y-95520000D03*
%TO.P,J3,6*%
%TO.N,Net-(J3-Pad6)*%
X122240000Y-95520000D03*
%TO.P,J3,7*%
%TO.N,/Precharge/CHARGE_INN*%
X117360000Y-103140000D03*
%TO.P,J3,8*%
X119800000Y-103140000D03*
%TO.P,J3,9*%
X122240000Y-103140000D03*
%TD*%
D19*
%TO.P,J2,A1*%
%TO.N,/Signaling/ADCINA3_AI*%
X338565000Y-169725000D03*
%TO.P,J2,A2*%
%TO.N,GND*%
X336025000Y-169725000D03*
%TO.P,J2,A3*%
X333485000Y-169725000D03*
%TO.P,J2,A4*%
%TO.N,/Signaling/GPIO_P52*%
X330945000Y-169725000D03*
%TO.P,J2,A5*%
%TO.N,/Signaling/GPIO_P22*%
X328405000Y-169725000D03*
%TO.P,J2,A6*%
%TO.N,5V*%
X325865000Y-169725000D03*
%TO.P,J2,B1*%
%TO.N,GND*%
X338565000Y-172265000D03*
%TO.P,J2,B2*%
%TO.N,/Signaling/ADCINA2_AI*%
X336025000Y-172265000D03*
%TO.P,J2,B3*%
%TO.N,/Signaling/ADCINA0_AI*%
X333485000Y-172265000D03*
%TO.P,J2,B4*%
%TO.N,/Signaling/GPIO_P97*%
X330945000Y-172265000D03*
%TO.P,J2,B5*%
%TO.N,/Precharge/Charge_Active*%
X328405000Y-172265000D03*
%TO.P,J2,B6*%
%TO.N,3.3V*%
X325865000Y-172265000D03*
D20*
%TO.P,J2,MH1*%
%TO.N,N/C*%
X342025000Y-169725000D03*
%TO.P,J2,MH2*%
X322305000Y-169725000D03*
%TD*%
D21*
%TO.N,GND*%
X262400000Y-177300000D03*
X196300000Y-169950000D03*
X199875000Y-175325000D03*
X183225000Y-175625000D03*
X218360000Y-169400000D03*
X227800000Y-171100000D03*
X289460000Y-172950000D03*
X273360000Y-165400000D03*
X271360000Y-169400000D03*
X363825000Y-169300000D03*
X369310000Y-174400000D03*
X252100000Y-169700000D03*
X256600000Y-180250000D03*
X153360000Y-175900000D03*
X262200000Y-174600000D03*
X182950000Y-173350000D03*
X216925000Y-175875000D03*
D22*
X234300000Y-171500000D03*
D21*
X160400000Y-177200000D03*
X156800000Y-178500000D03*
X287900000Y-165625000D03*
X287525000Y-167200000D03*
X284550000Y-167575000D03*
X286200000Y-170650000D03*
X298925000Y-168050000D03*
X300850000Y-168100000D03*
X301700000Y-165875000D03*
X300225000Y-171250000D03*
X301500000Y-171250000D03*
X371200000Y-177400000D03*
X371300000Y-178650000D03*
X371350000Y-180500000D03*
X363750000Y-167350000D03*
X362650000Y-170850000D03*
X362450000Y-172250000D03*
X362250000Y-174200000D03*
X362000000Y-176050000D03*
X359950000Y-175400000D03*
X333150000Y-167200000D03*
X335300000Y-166500000D03*
X337400000Y-166400000D03*
X341300000Y-172400000D03*
X341400000Y-174450000D03*
X343300000Y-176050000D03*
X343350000Y-173350000D03*
X344850000Y-170850000D03*
X346100000Y-173050000D03*
X334700000Y-175400000D03*
X333450000Y-177800000D03*
X331650000Y-179450000D03*
X335900000Y-177600000D03*
X338300000Y-180150000D03*
X341800000Y-182400000D03*
X288250000Y-170700000D03*
X290150000Y-170150000D03*
X287300000Y-173000000D03*
X287150000Y-175100000D03*
X283950000Y-176450000D03*
X272350000Y-181450000D03*
X267800000Y-181650000D03*
X273750000Y-177400000D03*
X275350000Y-178550000D03*
X277150000Y-179600000D03*
X248150000Y-180200000D03*
X246700000Y-181250000D03*
X248600000Y-181500000D03*
X253800000Y-176500000D03*
X253750000Y-178300000D03*
X255200000Y-176950000D03*
X255250000Y-178500000D03*
X246900000Y-175250000D03*
X246850000Y-173550000D03*
X245300000Y-173150000D03*
X247900000Y-169600000D03*
X250450000Y-165350000D03*
X247600000Y-165350000D03*
X239550000Y-169150000D03*
X237750000Y-169250000D03*
X238300000Y-173650000D03*
X238350000Y-175150000D03*
X236600000Y-175300000D03*
X236550000Y-173300000D03*
X228250000Y-173400000D03*
X228250000Y-175000000D03*
X227400000Y-176400000D03*
X224250000Y-176750000D03*
X222250000Y-176000000D03*
X222800000Y-172800000D03*
X223050000Y-170700000D03*
X223150000Y-168450000D03*
X225250000Y-167700000D03*
X227150000Y-168250000D03*
X220300000Y-170350000D03*
X220200000Y-172550000D03*
X220350000Y-175300000D03*
X219500000Y-177600000D03*
X171550000Y-170050000D03*
X171400000Y-171700000D03*
X170500000Y-172250000D03*
X170200000Y-174050000D03*
X170300000Y-176000000D03*
X180600000Y-175800000D03*
X186900000Y-167100000D03*
X182550000Y-171750000D03*
X197050000Y-176000000D03*
X202300000Y-175350000D03*
X204000000Y-175000000D03*
X204100000Y-172900000D03*
X152650000Y-177400000D03*
X155600000Y-175700000D03*
X198150000Y-167950000D03*
X186500000Y-168450000D03*
X207650000Y-167850000D03*
X205550000Y-167850000D03*
X204200000Y-170400000D03*
D23*
%TO.N,5V*%
X266360000Y-169400000D03*
X254200000Y-169700000D03*
D21*
X260900000Y-169700000D03*
X269900000Y-175775000D03*
%TO.N,GNDD*%
X196400000Y-141000000D03*
X192625000Y-119725000D03*
X190500000Y-119750000D03*
X223975000Y-137798000D03*
X224000000Y-136073000D03*
X231250000Y-141700000D03*
X271400000Y-141750000D03*
X262075000Y-136023000D03*
X262050000Y-137748000D03*
X267650000Y-76750000D03*
X267600000Y-75500000D03*
X335250000Y-71550000D03*
X344850000Y-77150000D03*
X344050000Y-75800000D03*
X383400000Y-140400000D03*
X376350000Y-137800000D03*
X376375000Y-136075000D03*
X309450000Y-141450000D03*
X300125000Y-137873000D03*
X300150000Y-136148000D03*
X338225000Y-137773000D03*
X355600000Y-139750000D03*
X338250000Y-136048000D03*
D23*
X254450000Y-81800000D03*
X252750000Y-81600000D03*
X262525000Y-94400000D03*
X263150000Y-88575000D03*
X301075000Y-88575000D03*
X299525000Y-93225000D03*
D21*
X298250000Y-71550000D03*
X293500000Y-79750000D03*
X305950000Y-75775000D03*
X306675000Y-77775000D03*
X228200000Y-76700000D03*
X229800000Y-75800000D03*
X224950000Y-88350000D03*
X203350000Y-158925000D03*
X202050000Y-159150000D03*
X239360000Y-149400000D03*
X212125000Y-155425000D03*
X220850000Y-158000000D03*
X213975000Y-152950000D03*
X271000000Y-158675000D03*
X369310000Y-151400000D03*
X363650000Y-157400000D03*
X201200000Y-107700000D03*
X180500000Y-86600000D03*
X182118000Y-86360000D03*
X182626000Y-85050000D03*
X182626000Y-83800000D03*
X191850000Y-75700000D03*
X220850000Y-83500000D03*
X216300000Y-80050000D03*
X211100000Y-81700000D03*
X216050000Y-81750000D03*
X194950000Y-82950000D03*
X197700000Y-82300000D03*
X186250000Y-70900000D03*
X260050000Y-73200000D03*
X373650000Y-71700000D03*
X382900000Y-77000000D03*
X382150000Y-75950000D03*
X254650000Y-152250000D03*
X185700000Y-137575000D03*
X184850000Y-131675000D03*
X292450000Y-81550000D03*
X291100000Y-81300000D03*
X291300000Y-79750000D03*
X330150000Y-80950000D03*
X367550000Y-80600000D03*
X373850000Y-95950000D03*
X375350000Y-94550000D03*
X376400000Y-92750000D03*
X377450000Y-88450000D03*
X172775000Y-146300000D03*
X172775000Y-148650000D03*
X174350000Y-149550000D03*
X252050000Y-155750000D03*
X250800000Y-159800000D03*
X168900000Y-83000000D03*
X167800000Y-81600000D03*
X165000000Y-78800000D03*
X162900000Y-77000000D03*
X158100000Y-76700000D03*
X153300000Y-76700000D03*
X149300000Y-76600000D03*
X178100000Y-79250000D03*
X298700000Y-159400000D03*
X288300000Y-159400000D03*
X284000000Y-159400000D03*
X273500000Y-159200000D03*
X249900000Y-147550000D03*
X266150000Y-149100000D03*
X266300000Y-151550000D03*
X249900000Y-149500000D03*
X222700000Y-93500000D03*
D23*
X210250000Y-97500000D03*
X208700000Y-97500000D03*
D21*
X338000000Y-93550000D03*
X339050000Y-92200000D03*
X336550000Y-95700000D03*
X361150000Y-157350000D03*
X359500000Y-157400000D03*
X356850000Y-157300000D03*
X354150000Y-157250000D03*
X351250000Y-157300000D03*
X348750000Y-157400000D03*
X346450000Y-157500000D03*
X344100000Y-157500000D03*
X341700000Y-157500000D03*
X339250000Y-157350000D03*
X365600000Y-149450000D03*
X367100000Y-150550000D03*
X368550000Y-149450000D03*
X370850000Y-149900000D03*
X204600000Y-154500000D03*
X202700000Y-154750000D03*
X201450000Y-152500000D03*
X203850000Y-151900000D03*
X219450000Y-154300000D03*
X221250000Y-154100000D03*
X220800000Y-156500000D03*
X220500000Y-151700000D03*
X217650000Y-150600000D03*
X214950000Y-150450000D03*
X256250000Y-159550000D03*
X252250000Y-159850000D03*
X250050000Y-155750000D03*
D23*
X271200000Y-154300000D03*
X271250000Y-155950000D03*
X257900000Y-147200000D03*
X254000000Y-147450000D03*
X237350000Y-132950000D03*
X198800000Y-133150000D03*
X190700000Y-124600000D03*
X228750000Y-124450000D03*
X231400000Y-119700000D03*
X229100000Y-119650000D03*
X184950000Y-93150000D03*
X185000000Y-95400000D03*
X181550000Y-95800000D03*
X267200000Y-119250000D03*
X269300000Y-119300000D03*
X266900000Y-124300000D03*
X305000000Y-124400000D03*
X304850000Y-119550000D03*
X307100000Y-119850000D03*
X314350000Y-132950000D03*
X277150000Y-133050000D03*
X352400000Y-133550000D03*
X343450000Y-124550000D03*
X343150000Y-119350000D03*
X345250000Y-119450000D03*
X388250000Y-133600000D03*
X381150000Y-124400000D03*
X381250000Y-119250000D03*
X383000000Y-118900000D03*
X182900000Y-88200000D03*
X191900000Y-76950000D03*
X224750000Y-92050000D03*
D21*
X261550000Y-71200000D03*
X264750000Y-76850000D03*
X263150000Y-92250000D03*
X261200000Y-93000000D03*
X297000000Y-83450000D03*
X301100000Y-92200000D03*
X301200000Y-93800000D03*
X339350000Y-88500000D03*
X154600000Y-81200000D03*
X152900000Y-81850000D03*
X157450000Y-82050000D03*
X155650000Y-85550000D03*
X158750000Y-85550000D03*
X162400000Y-85550000D03*
X159900000Y-93550000D03*
X164450000Y-91950000D03*
X162400000Y-93550000D03*
X167600000Y-91950000D03*
X358150000Y-149900000D03*
X353650000Y-148100000D03*
X351650000Y-148100000D03*
X348950000Y-148000000D03*
X346100000Y-147950000D03*
X343250000Y-148000000D03*
X183950000Y-72900000D03*
X174600000Y-71200000D03*
X220300000Y-71350000D03*
X222000000Y-72150000D03*
X345400000Y-140000000D03*
X350400000Y-133550000D03*
X355650000Y-138150000D03*
X385750000Y-141100000D03*
X375050000Y-131650000D03*
X269500000Y-139800000D03*
X275100000Y-133600000D03*
X307350000Y-140400000D03*
X312900000Y-134000000D03*
X231400000Y-139900000D03*
X239250000Y-133350000D03*
X198800000Y-109750000D03*
X199500000Y-108000000D03*
X185200000Y-156950000D03*
X186850000Y-156950000D03*
X187800000Y-154800000D03*
X193050000Y-159600000D03*
X368850000Y-81750000D03*
X365350000Y-81200000D03*
X327050000Y-81600000D03*
X330850000Y-81900000D03*
X289600000Y-81700000D03*
%TO.N,5V_ISO*%
X375310000Y-157450000D03*
D23*
X184993000Y-123998000D03*
X223093000Y-123748000D03*
X383082000Y-89200000D03*
X345032000Y-89175000D03*
X268557000Y-89250000D03*
X230356000Y-89094000D03*
X258160000Y-156600000D03*
D21*
X374310000Y-149900000D03*
X375810000Y-154900000D03*
X252860000Y-153400000D03*
D23*
X192532000Y-89154000D03*
X306807000Y-89175000D03*
D21*
X283700000Y-155400000D03*
X298500000Y-155700000D03*
X280000000Y-157700000D03*
X294700000Y-157700000D03*
X244350000Y-154500000D03*
X246860000Y-154400000D03*
D23*
X261550000Y-123100000D03*
X375900000Y-123400000D03*
X337400000Y-122700000D03*
X299450000Y-122950000D03*
D21*
%TO.N,/Supercaps/OVP_V1-_V2+*%
X214177000Y-119435000D03*
%TO.N,/Supercaps/OVP_V3-_V4+*%
X290677000Y-119435000D03*
D23*
%TO.N,/Supercaps/OVP_V8-_V9+*%
X287860000Y-98400000D03*
X283360000Y-98400000D03*
D21*
%TO.N,/Supercaps/OVP_V5-_V6+*%
X366824500Y-119074500D03*
D23*
%TO.N,/Supercaps/OVP_V6-_V7+*%
X360360000Y-98400000D03*
X364360000Y-98400000D03*
D21*
%TO.N,/OR-GATE/IN_PORT_1*%
X274560000Y-167400000D03*
X271750000Y-174800000D03*
%TO.N,Charge_Gate*%
X160050000Y-96150000D03*
X174000000Y-144650000D03*
%TO.N,Precharge_Gate*%
X155050000Y-89050000D03*
X183150000Y-143400000D03*
%TO.N,Load_Gate*%
X151550000Y-79200000D03*
X206526990Y-145973010D03*
%TO.N,6V_ISO*%
X188650000Y-158150000D03*
X212575000Y-157800000D03*
X259360000Y-151400000D03*
X259360000Y-153400000D03*
X259360000Y-155400000D03*
D23*
X215900000Y-154450000D03*
D21*
X254200000Y-151125000D03*
X182250000Y-158100000D03*
D23*
X181975000Y-153125000D03*
X199725000Y-155100000D03*
D21*
%TO.N,/Isolation-IC/IN_PORT_6*%
X377525000Y-116300000D03*
X294750000Y-152975000D03*
%TO.N,/Isolation-IC/IN_PORT_5*%
X339425000Y-116275000D03*
X294200000Y-150500000D03*
%TO.N,/Isolation-IC/IN_PORT_4*%
X301325000Y-116325000D03*
X293500000Y-147100000D03*
%TO.N,/Isolation-IC/IN_PORT_3*%
X263250000Y-116175000D03*
X275900000Y-149900000D03*
%TO.N,/Isolation-IC/IN_PORT_2*%
X225175000Y-116325000D03*
X275100000Y-152950000D03*
%TO.N,/Isolation-IC/IN_PORT_1*%
X187075000Y-116650000D03*
X274512500Y-155487500D03*
%TO.N,/Isolation-IC/IN_PORT_12*%
X190450000Y-96900000D03*
X274800000Y-154150000D03*
%TO.N,/Isolation-IC/IN_PORT_11*%
X228250000Y-96700000D03*
X275350000Y-151950000D03*
%TO.N,/Isolation-IC/IN_PORT_10*%
X266450000Y-96850000D03*
X275550000Y-150900000D03*
%TO.N,/Isolation-IC/IN_PORT_9*%
X293700000Y-148200000D03*
X304725000Y-95275000D03*
%TO.N,/Isolation-IC/IN_PORT_8*%
X293850000Y-149500000D03*
X342950000Y-95400000D03*
%TO.N,/Isolation-IC/IN_PORT_7*%
X294400000Y-151850000D03*
X381000000Y-95700000D03*
%TO.N,3.3V*%
X375310000Y-167400000D03*
X191200000Y-166900000D03*
X215300000Y-166900000D03*
X299960000Y-177950000D03*
X375810000Y-171400000D03*
X375810000Y-174900000D03*
X280700000Y-165600000D03*
X282400000Y-174600000D03*
X295300000Y-165700000D03*
X235700000Y-169400000D03*
X232900000Y-169500000D03*
X231300000Y-167700000D03*
X242700000Y-165500000D03*
X318550000Y-171100000D03*
X318500000Y-172700000D03*
X321625000Y-172275000D03*
X323650000Y-172200000D03*
X184850000Y-167000000D03*
%TO.N,OVP_POWER*%
X203775000Y-137023000D03*
X243125000Y-136573000D03*
X357475000Y-136398000D03*
X363150000Y-76375000D03*
X319425000Y-136648000D03*
X393500000Y-134800000D03*
X324700000Y-76300000D03*
X249000000Y-75850000D03*
X287275000Y-76400000D03*
X281300000Y-136673000D03*
X335625000Y-146850000D03*
X173200000Y-78800000D03*
X212150000Y-76600000D03*
%TO.N,Net-(IC35-Pad12)*%
X292260000Y-179950000D03*
X296060000Y-179950000D03*
%TD*%
D24*
%TO.N,5V*%
X266000000Y-169800000D02*
X254200000Y-169700000D01*
X266370000Y-169350000D02*
X266310000Y-169450000D01*
X266360000Y-169440000D02*
X266000000Y-169800000D01*
X266360000Y-169400000D02*
X266360000Y-169440000D01*
X269900000Y-175775000D02*
X276000000Y-181875000D01*
X276000000Y-181875000D02*
X304875000Y-181875000D01*
X304875000Y-181875000D02*
X308425000Y-178325000D01*
X308425000Y-178325000D02*
X308425000Y-169050000D01*
X308425000Y-169050000D02*
X310200000Y-167275000D01*
X323415000Y-167275000D02*
X325865000Y-169725000D01*
X310200000Y-167275000D02*
X323415000Y-167275000D01*
D25*
%TO.N,/Supercaps/OVP_V1-_V2+*%
X200046000Y-125422000D02*
X208334000Y-125422000D01*
X208334000Y-125422000D02*
X215446000Y-125422000D01*
%TO.N,/Supercaps/OVP_V11-_V12+*%
X207022000Y-89662000D02*
X200406000Y-89662000D01*
X216006000Y-89662000D02*
X207022000Y-89662000D01*
D24*
X220898000Y-89662000D02*
X216006000Y-89662000D01*
D25*
%TO.N,/Supercaps/OVP_V2-_V3+*%
X238146000Y-125222000D02*
X253746000Y-125222000D01*
%TO.N,/Supercaps/OVP_V10-_V11+*%
X254106000Y-89662000D02*
X238506000Y-89662000D01*
%TO.N,/Supercaps/OVP_V3-_V4+*%
X276246000Y-125222000D02*
X291846000Y-125222000D01*
%TO.N,/Supercaps/OVP_V9-_V10+*%
X292206000Y-89662000D02*
X276606000Y-89662000D01*
%TO.N,/Supercaps/OVP_V4-_V5+*%
X314346000Y-125222000D02*
X329946000Y-125222000D01*
%TO.N,/Supercaps/OVP_V8-_V9+*%
X330306000Y-89662000D02*
X314706000Y-89662000D01*
D26*
X335598000Y-89662000D02*
X330306000Y-89662000D01*
X283360000Y-98400000D02*
X287860000Y-98400000D01*
D25*
%TO.N,/Supercaps/OVP_V5-_V6+*%
X352446000Y-125222000D02*
X368046000Y-125222000D01*
%TO.N,/Supercaps/OVP_V7-_V8+*%
X368406000Y-89662000D02*
X352806000Y-89662000D01*
D26*
X373598000Y-89662000D02*
X368406000Y-89662000D01*
D25*
%TO.N,/Supercaps/OVP_V6-_V7+*%
X392120999Y-90876999D02*
X390906000Y-89662000D01*
X390546000Y-125222000D02*
X392120999Y-123647001D01*
D27*
X393031001Y-122736999D02*
X392120999Y-123647001D01*
X393031001Y-91787001D02*
X393031001Y-122736999D01*
X392120999Y-90876999D02*
X393031001Y-91787001D01*
D24*
X360360000Y-98400000D02*
X364360000Y-98400000D01*
D28*
%TO.N,/OR-GATE/IN_PORT_1*%
X271760000Y-170200000D02*
X271760000Y-174800000D01*
X274560000Y-167400000D02*
X271760000Y-170200000D01*
D26*
X271760000Y-174800000D02*
X271750000Y-174800000D01*
X271750000Y-170342002D02*
X271826001Y-170266001D01*
X271750000Y-174800000D02*
X271750000Y-170342002D01*
X274560000Y-167490001D02*
X274560000Y-167400000D01*
X271750000Y-170300001D02*
X274560000Y-167490001D01*
X271750000Y-170342002D02*
X271750000Y-170300001D01*
D25*
%TO.N,/Precharge/LOAD_INN*%
X119360000Y-70900000D02*
X119360000Y-85400000D01*
D29*
%TO.N,OVP_POWER*%
X173422000Y-125422000D02*
X172500000Y-124500000D01*
X177546000Y-125422000D02*
X173422000Y-125422000D01*
X172500000Y-124500000D02*
X172500000Y-79500000D01*
X177546000Y-133629002D02*
X177546000Y-125422000D01*
X182166998Y-138250000D02*
X177546000Y-133629002D01*
X185000000Y-68000000D02*
X215000000Y-68000000D01*
X175156250Y-77056250D02*
X185000000Y-68000000D01*
X172500000Y-79500000D02*
X175156250Y-77056250D01*
X249000000Y-75825000D02*
X249000000Y-68000000D01*
X215000000Y-68000000D02*
X250825000Y-68000000D01*
X290025000Y-68475000D02*
X290500000Y-68000000D01*
X287275000Y-76400000D02*
X287275000Y-68425000D01*
X250825000Y-68000000D02*
X290500000Y-68000000D01*
X319425000Y-136648000D02*
X319425000Y-144000000D01*
X366300000Y-68200000D02*
X366100000Y-68000000D01*
X363150000Y-76375000D02*
X363150000Y-68100000D01*
X328250000Y-68425000D02*
X327825000Y-68000000D01*
X324700000Y-76300000D02*
X324700000Y-68275000D01*
X327825000Y-68000000D02*
X366100000Y-68000000D01*
X290500000Y-68000000D02*
X327825000Y-68000000D01*
X187816998Y-143900000D02*
X182166998Y-138250000D01*
X357475000Y-136398000D02*
X357475000Y-144050000D01*
X391725000Y-144500000D02*
X353725000Y-144500000D01*
X239875000Y-143400000D02*
X239375000Y-143900000D01*
X243125000Y-136573000D02*
X243125000Y-143500000D01*
X201775000Y-143000000D02*
X200875000Y-143900000D01*
X203775000Y-137023000D02*
X203775000Y-143300000D01*
X200875000Y-143900000D02*
X187816998Y-143900000D01*
X239375000Y-143900000D02*
X200875000Y-143900000D01*
X281300000Y-144025000D02*
X281300000Y-136673000D01*
X277225000Y-144500000D02*
X277950000Y-143775000D01*
X276625000Y-143900000D02*
X277225000Y-144500000D01*
X239375000Y-143900000D02*
X276625000Y-143900000D01*
X286900000Y-144500000D02*
X277225000Y-144500000D01*
X315425000Y-144500000D02*
X286900000Y-144500000D01*
D24*
X335625000Y-146850000D02*
X335625000Y-144650000D01*
X335625000Y-144650000D02*
X335775000Y-144500000D01*
D29*
X335775000Y-144500000D02*
X315425000Y-144500000D01*
X353725000Y-144500000D02*
X335775000Y-144500000D01*
X214430001Y-68569999D02*
X215000000Y-68000000D01*
X214430001Y-75569999D02*
X214430001Y-68569999D01*
X212150000Y-76600000D02*
X214430001Y-75569999D01*
X366100000Y-68000000D02*
X393000000Y-68000000D01*
X393000000Y-68000000D02*
X401500000Y-76500000D01*
X401500000Y-76500000D02*
X401500000Y-136000000D01*
X393000000Y-144500000D02*
X391725000Y-144500000D01*
X398100000Y-139400000D02*
X393500000Y-134800000D01*
X401500000Y-136000000D02*
X398100000Y-139400000D01*
X398100000Y-139400000D02*
X393000000Y-144500000D01*
D28*
%TO.N,Net-(IC35-Pad12)*%
X292260000Y-179950000D02*
X296060000Y-179950000D01*
D25*
%TO.N,/Precharge/CHARGE_INN*%
X119860000Y-106400000D02*
X119860000Y-113400000D01*
%TD*%
D30*
%TO.N,OVP_POWER*%
X179891055Y-120126434D02*
X181817031Y-132571202D01*
X174498661Y-143738411D01*
X174490256Y-143732795D01*
X174301898Y-143654774D01*
X174101939Y-143615000D01*
X173898061Y-143615000D01*
X173698102Y-143654774D01*
X173509744Y-143732795D01*
X173340226Y-143846063D01*
X173196063Y-143990226D01*
X173082795Y-144159744D01*
X173004774Y-144348102D01*
X172965000Y-144548061D01*
X172965000Y-144751939D01*
X173004774Y-144951898D01*
X173082795Y-145140256D01*
X173196063Y-145309774D01*
X173276792Y-145390503D01*
X173265256Y-145382795D01*
X173076898Y-145304774D01*
X172876939Y-145265000D01*
X172673061Y-145265000D01*
X172473102Y-145304774D01*
X172284744Y-145382795D01*
X172115226Y-145496063D01*
X171971063Y-145640226D01*
X171857795Y-145809744D01*
X171779774Y-145998102D01*
X171740000Y-146198061D01*
X171740000Y-146401939D01*
X171779774Y-146601898D01*
X171857795Y-146790256D01*
X171971063Y-146959774D01*
X172115226Y-147103937D01*
X172238918Y-147186585D01*
X165481291Y-157498147D01*
X154027000Y-157522727D01*
X154027000Y-148983601D01*
X170473640Y-120077385D01*
X179891055Y-120126434D01*
%TA.AperFunction,Conductor*%
D31*
G36*
X179891055Y-120126434D02*
G01*
X181817031Y-132571202D01*
X174498661Y-143738411D01*
X174490256Y-143732795D01*
X174301898Y-143654774D01*
X174101939Y-143615000D01*
X173898061Y-143615000D01*
X173698102Y-143654774D01*
X173509744Y-143732795D01*
X173340226Y-143846063D01*
X173196063Y-143990226D01*
X173082795Y-144159744D01*
X173004774Y-144348102D01*
X172965000Y-144548061D01*
X172965000Y-144751939D01*
X173004774Y-144951898D01*
X173082795Y-145140256D01*
X173196063Y-145309774D01*
X173276792Y-145390503D01*
X173265256Y-145382795D01*
X173076898Y-145304774D01*
X172876939Y-145265000D01*
X172673061Y-145265000D01*
X172473102Y-145304774D01*
X172284744Y-145382795D01*
X172115226Y-145496063D01*
X171971063Y-145640226D01*
X171857795Y-145809744D01*
X171779774Y-145998102D01*
X171740000Y-146198061D01*
X171740000Y-146401939D01*
X171779774Y-146601898D01*
X171857795Y-146790256D01*
X171971063Y-146959774D01*
X172115226Y-147103937D01*
X172238918Y-147186585D01*
X165481291Y-157498147D01*
X154027000Y-157522727D01*
X154027000Y-148983601D01*
X170473640Y-120077385D01*
X179891055Y-120126434D01*
G37*
%TD.AperFunction*%
%TD*%
D30*
%TO.N,/Sheet6014032E/Current_TBM+*%
X152723000Y-148943422D02*
X152723000Y-157573000D01*
X112390520Y-157573000D01*
X112364155Y-126427000D01*
X135287717Y-126427000D01*
X152723000Y-148943422D01*
%TA.AperFunction,Conductor*%
D31*
G36*
X152723000Y-148943422D02*
G01*
X152723000Y-157573000D01*
X112390520Y-157573000D01*
X112364155Y-126427000D01*
X135287717Y-126427000D01*
X152723000Y-148943422D01*
G37*
%TD.AperFunction*%
%TD*%
D30*
%TO.N,OVP_POWER*%
X404222842Y-144872891D02*
X207376738Y-144704286D01*
X207250296Y-144619800D01*
X206972400Y-144504691D01*
X206677386Y-144446010D01*
X206376594Y-144446010D01*
X206081580Y-144504691D01*
X205803684Y-144619800D01*
X205679418Y-144702832D01*
X183976523Y-144684243D01*
X184123406Y-144586099D01*
X184336099Y-144373406D01*
X184503210Y-144123306D01*
X184618319Y-143845410D01*
X184677000Y-143550396D01*
X184677000Y-143249604D01*
X184618319Y-142954590D01*
X184503210Y-142676694D01*
X184336099Y-142426594D01*
X184123406Y-142213901D01*
X183873306Y-142046790D01*
X183595410Y-141931681D01*
X183300396Y-141873000D01*
X182999604Y-141873000D01*
X182704590Y-141931681D01*
X182426694Y-142046790D01*
X182176594Y-142213901D01*
X181963901Y-142426594D01*
X181796790Y-142676694D01*
X181681681Y-142954590D01*
X181623000Y-143249604D01*
X181623000Y-143550396D01*
X181681681Y-143845410D01*
X181796790Y-144123306D01*
X181963901Y-144373406D01*
X182176594Y-144586099D01*
X182321355Y-144682825D01*
X175527000Y-144677005D01*
X175527000Y-144499604D01*
X175468319Y-144204590D01*
X175353210Y-143926694D01*
X175186099Y-143676594D01*
X174973406Y-143463901D01*
X174723306Y-143296790D01*
X174445410Y-143181681D01*
X174150396Y-143123000D01*
X173849604Y-143123000D01*
X173554590Y-143181681D01*
X173276694Y-143296790D01*
X173026594Y-143463901D01*
X172813901Y-143676594D01*
X172646790Y-143926694D01*
X172531681Y-144204590D01*
X172473000Y-144499604D01*
X172473000Y-144674390D01*
X170974444Y-144673106D01*
X170896612Y-140849604D01*
X194873000Y-140849604D01*
X194873000Y-141150396D01*
X194931681Y-141445410D01*
X195046790Y-141723306D01*
X195213901Y-141973406D01*
X195426594Y-142186099D01*
X195676694Y-142353210D01*
X195954590Y-142468319D01*
X196249604Y-142527000D01*
X196550396Y-142527000D01*
X196845410Y-142468319D01*
X197123306Y-142353210D01*
X197373406Y-142186099D01*
X197586099Y-141973406D01*
X197753210Y-141723306D01*
X197825160Y-141549604D01*
X229723000Y-141549604D01*
X229723000Y-141850396D01*
X229781681Y-142145410D01*
X229896790Y-142423306D01*
X230063901Y-142673406D01*
X230276594Y-142886099D01*
X230526694Y-143053210D01*
X230804590Y-143168319D01*
X231099604Y-143227000D01*
X231400396Y-143227000D01*
X231695410Y-143168319D01*
X231973306Y-143053210D01*
X232223406Y-142886099D01*
X232436099Y-142673406D01*
X232603210Y-142423306D01*
X232718319Y-142145410D01*
X232777000Y-141850396D01*
X232777000Y-141549604D01*
X232718319Y-141254590D01*
X232603210Y-140976694D01*
X232554985Y-140904520D01*
X232586099Y-140873406D01*
X232753210Y-140623306D01*
X232868319Y-140345410D01*
X232927000Y-140050396D01*
X232927000Y-139749604D01*
X232907110Y-139649604D01*
X267973000Y-139649604D01*
X267973000Y-139950396D01*
X268031681Y-140245410D01*
X268146790Y-140523306D01*
X268313901Y-140773406D01*
X268526594Y-140986099D01*
X268776694Y-141153210D01*
X269054590Y-141268319D01*
X269349604Y-141327000D01*
X269650396Y-141327000D01*
X269945410Y-141268319D01*
X269946973Y-141267671D01*
X269931681Y-141304590D01*
X269873000Y-141599604D01*
X269873000Y-141900396D01*
X269931681Y-142195410D01*
X270046790Y-142473306D01*
X270213901Y-142723406D01*
X270426594Y-142936099D01*
X270676694Y-143103210D01*
X270954590Y-143218319D01*
X271249604Y-143277000D01*
X271550396Y-143277000D01*
X271845410Y-143218319D01*
X272123306Y-143103210D01*
X272373406Y-142936099D01*
X272586099Y-142723406D01*
X272753210Y-142473306D01*
X272868319Y-142195410D01*
X272927000Y-141900396D01*
X272927000Y-141599604D01*
X272868319Y-141304590D01*
X272753210Y-141026694D01*
X272586099Y-140776594D01*
X272373406Y-140563901D01*
X272123306Y-140396790D01*
X271845410Y-140281681D01*
X271684146Y-140249604D01*
X305823000Y-140249604D01*
X305823000Y-140550396D01*
X305881681Y-140845410D01*
X305996790Y-141123306D01*
X306163901Y-141373406D01*
X306376594Y-141586099D01*
X306626694Y-141753210D01*
X306904590Y-141868319D01*
X307199604Y-141927000D01*
X307500396Y-141927000D01*
X307795410Y-141868319D01*
X307962524Y-141799098D01*
X307981681Y-141895410D01*
X308096790Y-142173306D01*
X308263901Y-142423406D01*
X308476594Y-142636099D01*
X308726694Y-142803210D01*
X309004590Y-142918319D01*
X309299604Y-142977000D01*
X309600396Y-142977000D01*
X309895410Y-142918319D01*
X310173306Y-142803210D01*
X310423406Y-142636099D01*
X310636099Y-142423406D01*
X310803210Y-142173306D01*
X310918319Y-141895410D01*
X310977000Y-141600396D01*
X310977000Y-141299604D01*
X310918319Y-141004590D01*
X310803210Y-140726694D01*
X310636099Y-140476594D01*
X310423406Y-140263901D01*
X310173306Y-140096790D01*
X309895410Y-139981681D01*
X309600396Y-139923000D01*
X309299604Y-139923000D01*
X309004590Y-139981681D01*
X308837476Y-140050902D01*
X308818319Y-139954590D01*
X308774833Y-139849604D01*
X343873000Y-139849604D01*
X343873000Y-140150396D01*
X343931681Y-140445410D01*
X344046790Y-140723306D01*
X344213901Y-140973406D01*
X344426594Y-141186099D01*
X344676694Y-141353210D01*
X344954590Y-141468319D01*
X345249604Y-141527000D01*
X345550396Y-141527000D01*
X345845410Y-141468319D01*
X346123306Y-141353210D01*
X346373406Y-141186099D01*
X346586099Y-140973406D01*
X346753210Y-140723306D01*
X346868319Y-140445410D01*
X346927000Y-140150396D01*
X346927000Y-139849604D01*
X346877273Y-139599604D01*
X354073000Y-139599604D01*
X354073000Y-139900396D01*
X354131681Y-140195410D01*
X354246790Y-140473306D01*
X354413901Y-140723406D01*
X354626594Y-140936099D01*
X354876694Y-141103210D01*
X355154590Y-141218319D01*
X355449604Y-141277000D01*
X355750396Y-141277000D01*
X356045410Y-141218319D01*
X356323306Y-141103210D01*
X356573406Y-140936099D01*
X356786099Y-140723406D01*
X356953210Y-140473306D01*
X357045870Y-140249604D01*
X381873000Y-140249604D01*
X381873000Y-140550396D01*
X381931681Y-140845410D01*
X382046790Y-141123306D01*
X382213901Y-141373406D01*
X382426594Y-141586099D01*
X382676694Y-141753210D01*
X382954590Y-141868319D01*
X383249604Y-141927000D01*
X383550396Y-141927000D01*
X383845410Y-141868319D01*
X384123306Y-141753210D01*
X384314765Y-141625282D01*
X384396790Y-141823306D01*
X384563901Y-142073406D01*
X384776594Y-142286099D01*
X385026694Y-142453210D01*
X385304590Y-142568319D01*
X385599604Y-142627000D01*
X385900396Y-142627000D01*
X386195410Y-142568319D01*
X386473306Y-142453210D01*
X386723406Y-142286099D01*
X386936099Y-142073406D01*
X387103210Y-141823306D01*
X387218319Y-141545410D01*
X387277000Y-141250396D01*
X387277000Y-140949604D01*
X387218319Y-140654590D01*
X387103210Y-140376694D01*
X386936099Y-140126594D01*
X386723406Y-139913901D01*
X386473306Y-139746790D01*
X386195410Y-139631681D01*
X385900396Y-139573000D01*
X385599604Y-139573000D01*
X385304590Y-139631681D01*
X385026694Y-139746790D01*
X384835235Y-139874718D01*
X384753210Y-139676694D01*
X384586099Y-139426594D01*
X384373406Y-139213901D01*
X384123306Y-139046790D01*
X383845410Y-138931681D01*
X383550396Y-138873000D01*
X383249604Y-138873000D01*
X382954590Y-138931681D01*
X382676694Y-139046790D01*
X382426594Y-139213901D01*
X382213901Y-139426594D01*
X382046790Y-139676694D01*
X381931681Y-139954590D01*
X381873000Y-140249604D01*
X357045870Y-140249604D01*
X357068319Y-140195410D01*
X357127000Y-139900396D01*
X357127000Y-139599604D01*
X357068319Y-139304590D01*
X356953210Y-139026694D01*
X356926965Y-138987415D01*
X357003210Y-138873306D01*
X357118319Y-138595410D01*
X357177000Y-138300396D01*
X357177000Y-137999604D01*
X357118319Y-137704590D01*
X357003210Y-137426694D01*
X356836099Y-137176594D01*
X356623406Y-136963901D01*
X356373306Y-136796790D01*
X356095410Y-136681681D01*
X355800396Y-136623000D01*
X355499604Y-136623000D01*
X355204590Y-136681681D01*
X354926694Y-136796790D01*
X354676594Y-136963901D01*
X354463901Y-137176594D01*
X354296790Y-137426694D01*
X354181681Y-137704590D01*
X354123000Y-137999604D01*
X354123000Y-138300396D01*
X354181681Y-138595410D01*
X354296790Y-138873306D01*
X354323035Y-138912585D01*
X354246790Y-139026694D01*
X354131681Y-139304590D01*
X354073000Y-139599604D01*
X346877273Y-139599604D01*
X346868319Y-139554590D01*
X346753210Y-139276694D01*
X346586099Y-139026594D01*
X346373406Y-138813901D01*
X346123306Y-138646790D01*
X345845410Y-138531681D01*
X345550396Y-138473000D01*
X345249604Y-138473000D01*
X344954590Y-138531681D01*
X344676694Y-138646790D01*
X344426594Y-138813901D01*
X344213901Y-139026594D01*
X344046790Y-139276694D01*
X343931681Y-139554590D01*
X343873000Y-139849604D01*
X308774833Y-139849604D01*
X308703210Y-139676694D01*
X308536099Y-139426594D01*
X308323406Y-139213901D01*
X308073306Y-139046790D01*
X307795410Y-138931681D01*
X307500396Y-138873000D01*
X307199604Y-138873000D01*
X306904590Y-138931681D01*
X306626694Y-139046790D01*
X306376594Y-139213901D01*
X306163901Y-139426594D01*
X305996790Y-139676694D01*
X305881681Y-139954590D01*
X305823000Y-140249604D01*
X271684146Y-140249604D01*
X271550396Y-140223000D01*
X271249604Y-140223000D01*
X270954590Y-140281681D01*
X270953027Y-140282329D01*
X270968319Y-140245410D01*
X271027000Y-139950396D01*
X271027000Y-139649604D01*
X270968319Y-139354590D01*
X270853210Y-139076694D01*
X270686099Y-138826594D01*
X270473406Y-138613901D01*
X270223306Y-138446790D01*
X269945410Y-138331681D01*
X269650396Y-138273000D01*
X269349604Y-138273000D01*
X269054590Y-138331681D01*
X268776694Y-138446790D01*
X268526594Y-138613901D01*
X268313901Y-138826594D01*
X268146790Y-139076694D01*
X268031681Y-139354590D01*
X267973000Y-139649604D01*
X232907110Y-139649604D01*
X232868319Y-139454590D01*
X232753210Y-139176694D01*
X232586099Y-138926594D01*
X232373406Y-138713901D01*
X232123306Y-138546790D01*
X231845410Y-138431681D01*
X231550396Y-138373000D01*
X231249604Y-138373000D01*
X230954590Y-138431681D01*
X230676694Y-138546790D01*
X230426594Y-138713901D01*
X230213901Y-138926594D01*
X230046790Y-139176694D01*
X229931681Y-139454590D01*
X229873000Y-139749604D01*
X229873000Y-140050396D01*
X229931681Y-140345410D01*
X230046790Y-140623306D01*
X230095015Y-140695480D01*
X230063901Y-140726594D01*
X229896790Y-140976694D01*
X229781681Y-141254590D01*
X229723000Y-141549604D01*
X197825160Y-141549604D01*
X197868319Y-141445410D01*
X197927000Y-141150396D01*
X197927000Y-140849604D01*
X197868319Y-140554590D01*
X197753210Y-140276694D01*
X197586099Y-140026594D01*
X197373406Y-139813901D01*
X197123306Y-139646790D01*
X196845410Y-139531681D01*
X196550396Y-139473000D01*
X196249604Y-139473000D01*
X195954590Y-139531681D01*
X195676694Y-139646790D01*
X195426594Y-139813901D01*
X195213901Y-140026594D01*
X195046790Y-140276694D01*
X194931681Y-140554590D01*
X194873000Y-140849604D01*
X170896612Y-140849604D01*
X169836485Y-88770868D01*
X175098067Y-88770868D01*
X175099466Y-88794241D01*
X175204000Y-89476238D01*
X175204000Y-89928124D01*
X175307836Y-90450144D01*
X175379969Y-90624288D01*
X181824466Y-132669241D01*
X181830632Y-132693362D01*
X181841385Y-132715816D01*
X181856312Y-132735742D01*
X181874840Y-132752372D01*
X181896256Y-132765068D01*
X181919737Y-132773342D01*
X181924680Y-132773975D01*
X181916123Y-132777519D01*
X181473575Y-133073219D01*
X181097219Y-133449575D01*
X180801519Y-133892123D01*
X180597836Y-134383856D01*
X180494000Y-134905876D01*
X180494000Y-135438124D01*
X180597836Y-135960144D01*
X180801519Y-136451877D01*
X181097219Y-136894425D01*
X181473575Y-137270781D01*
X181916123Y-137566481D01*
X182407856Y-137770164D01*
X182929876Y-137874000D01*
X183462124Y-137874000D01*
X183984144Y-137770164D01*
X184173000Y-137691937D01*
X184173000Y-137725396D01*
X184231681Y-138020410D01*
X184346790Y-138298306D01*
X184513901Y-138548406D01*
X184726594Y-138761099D01*
X184976694Y-138928210D01*
X185254590Y-139043319D01*
X185549604Y-139102000D01*
X185850396Y-139102000D01*
X186145410Y-139043319D01*
X186423306Y-138928210D01*
X186673406Y-138761099D01*
X186886099Y-138548406D01*
X187053210Y-138298306D01*
X187168319Y-138020410D01*
X187227000Y-137725396D01*
X187227000Y-137424604D01*
X187168319Y-137129590D01*
X187053210Y-136851694D01*
X186886099Y-136601594D01*
X186673406Y-136388901D01*
X186423306Y-136221790D01*
X186145410Y-136106681D01*
X185850396Y-136048000D01*
X185757773Y-136048000D01*
X185794164Y-135960144D01*
X185898000Y-135438124D01*
X185898000Y-134905876D01*
X185794164Y-134383856D01*
X185590481Y-133892123D01*
X185294781Y-133449575D01*
X185039440Y-133194234D01*
X185295410Y-133143319D01*
X185573306Y-133028210D01*
X185823406Y-132861099D01*
X185852438Y-132832067D01*
X196995277Y-132989266D01*
X197173000Y-133043178D01*
X197173000Y-133310245D01*
X197235525Y-133624578D01*
X197358172Y-133920673D01*
X197536227Y-134187152D01*
X197762848Y-134413773D01*
X198029327Y-134591828D01*
X198325422Y-134714475D01*
X198639755Y-134777000D01*
X198960245Y-134777000D01*
X199274578Y-134714475D01*
X199570673Y-134591828D01*
X199837152Y-134413773D01*
X200063773Y-134187152D01*
X200241828Y-133920673D01*
X200364475Y-133624578D01*
X200379508Y-133549000D01*
X215845252Y-133549000D01*
X217039171Y-133431409D01*
X217541196Y-133279122D01*
X219162196Y-133301990D01*
X218901519Y-133692123D01*
X218697836Y-134183856D01*
X218594000Y-134705876D01*
X218594000Y-135238124D01*
X218697836Y-135760144D01*
X218901519Y-136251877D01*
X219197219Y-136694425D01*
X219573575Y-137070781D01*
X220016123Y-137366481D01*
X220507856Y-137570164D01*
X221029876Y-137674000D01*
X221562124Y-137674000D01*
X222084144Y-137570164D01*
X222497457Y-137398964D01*
X222448000Y-137647604D01*
X222448000Y-137948396D01*
X222506681Y-138243410D01*
X222621790Y-138521306D01*
X222788901Y-138771406D01*
X223001594Y-138984099D01*
X223251694Y-139151210D01*
X223529590Y-139266319D01*
X223824604Y-139325000D01*
X224125396Y-139325000D01*
X224420410Y-139266319D01*
X224698306Y-139151210D01*
X224948406Y-138984099D01*
X225161099Y-138771406D01*
X225328210Y-138521306D01*
X225443319Y-138243410D01*
X225502000Y-137948396D01*
X225502000Y-137647604D01*
X225443319Y-137352590D01*
X225328210Y-137074694D01*
X225247704Y-136954208D01*
X225353210Y-136796306D01*
X225468319Y-136518410D01*
X225527000Y-136223396D01*
X225527000Y-135922604D01*
X225468319Y-135627590D01*
X225353210Y-135349694D01*
X225186099Y-135099594D01*
X224973406Y-134886901D01*
X224723306Y-134719790D01*
X224445410Y-134604681D01*
X224150396Y-134546000D01*
X223966199Y-134546000D01*
X223894164Y-134183856D01*
X223690481Y-133692123D01*
X223470415Y-133362769D01*
X235832160Y-133537165D01*
X235908172Y-133720673D01*
X236086227Y-133987152D01*
X236312848Y-134213773D01*
X236579327Y-134391828D01*
X236875422Y-134514475D01*
X237189755Y-134577000D01*
X237510245Y-134577000D01*
X237824578Y-134514475D01*
X238120673Y-134391828D01*
X238127657Y-134387162D01*
X238276594Y-134536099D01*
X238526694Y-134703210D01*
X238804590Y-134818319D01*
X239099604Y-134877000D01*
X239400396Y-134877000D01*
X239695410Y-134818319D01*
X239973306Y-134703210D01*
X240223406Y-134536099D01*
X240436099Y-134323406D01*
X240603210Y-134073306D01*
X240718319Y-133795410D01*
X240755870Y-133606627D01*
X256942345Y-133834981D01*
X256797836Y-134183856D01*
X256694000Y-134705876D01*
X256694000Y-135238124D01*
X256797836Y-135760144D01*
X257001519Y-136251877D01*
X257297219Y-136694425D01*
X257673575Y-137070781D01*
X258116123Y-137366481D01*
X258607856Y-137570164D01*
X259129876Y-137674000D01*
X259662124Y-137674000D01*
X260184144Y-137570164D01*
X260559374Y-137414738D01*
X260523000Y-137597604D01*
X260523000Y-137898396D01*
X260581681Y-138193410D01*
X260696790Y-138471306D01*
X260863901Y-138721406D01*
X261076594Y-138934099D01*
X261326694Y-139101210D01*
X261604590Y-139216319D01*
X261899604Y-139275000D01*
X262200396Y-139275000D01*
X262495410Y-139216319D01*
X262773306Y-139101210D01*
X263023406Y-138934099D01*
X263236099Y-138721406D01*
X263403210Y-138471306D01*
X263518319Y-138193410D01*
X263577000Y-137898396D01*
X263577000Y-137597604D01*
X263518319Y-137302590D01*
X263403210Y-137024694D01*
X263322704Y-136904208D01*
X263428210Y-136746306D01*
X263543319Y-136468410D01*
X263602000Y-136173396D01*
X263602000Y-135872604D01*
X263543319Y-135577590D01*
X263428210Y-135299694D01*
X263261099Y-135049594D01*
X263048406Y-134836901D01*
X262798306Y-134669790D01*
X262520410Y-134554681D01*
X262225396Y-134496000D01*
X262056253Y-134496000D01*
X261994164Y-134183856D01*
X261878500Y-133904619D01*
X273642105Y-134070576D01*
X273746790Y-134323306D01*
X273913901Y-134573406D01*
X274126594Y-134786099D01*
X274376694Y-134953210D01*
X274654590Y-135068319D01*
X274949604Y-135127000D01*
X275250396Y-135127000D01*
X275545410Y-135068319D01*
X275823306Y-134953210D01*
X276073406Y-134786099D01*
X276286099Y-134573406D01*
X276352559Y-134473942D01*
X276379327Y-134491828D01*
X276675422Y-134614475D01*
X276989755Y-134677000D01*
X277310245Y-134677000D01*
X277624578Y-134614475D01*
X277920673Y-134491828D01*
X278187152Y-134313773D01*
X278363738Y-134137187D01*
X294860825Y-134369923D01*
X294794000Y-134705876D01*
X294794000Y-135238124D01*
X294897836Y-135760144D01*
X295101519Y-136251877D01*
X295397219Y-136694425D01*
X295773575Y-137070781D01*
X296216123Y-137366481D01*
X296707856Y-137570164D01*
X297229876Y-137674000D01*
X297762124Y-137674000D01*
X298284144Y-137570164D01*
X298662549Y-137413423D01*
X298656681Y-137427590D01*
X298598000Y-137722604D01*
X298598000Y-138023396D01*
X298656681Y-138318410D01*
X298771790Y-138596306D01*
X298938901Y-138846406D01*
X299151594Y-139059099D01*
X299401694Y-139226210D01*
X299679590Y-139341319D01*
X299974604Y-139400000D01*
X300275396Y-139400000D01*
X300570410Y-139341319D01*
X300848306Y-139226210D01*
X301098406Y-139059099D01*
X301311099Y-138846406D01*
X301478210Y-138596306D01*
X301593319Y-138318410D01*
X301652000Y-138023396D01*
X301652000Y-137722604D01*
X301593319Y-137427590D01*
X301478210Y-137149694D01*
X301397704Y-137029208D01*
X301503210Y-136871306D01*
X301618319Y-136593410D01*
X301677000Y-136298396D01*
X301677000Y-135997604D01*
X301618319Y-135702590D01*
X301503210Y-135424694D01*
X301336099Y-135174594D01*
X301123406Y-134961901D01*
X300873306Y-134794790D01*
X300595410Y-134679681D01*
X300300396Y-134621000D01*
X300181117Y-134621000D01*
X300146006Y-134444485D01*
X311497632Y-134604630D01*
X311546790Y-134723306D01*
X311713901Y-134973406D01*
X311926594Y-135186099D01*
X312176694Y-135353210D01*
X312454590Y-135468319D01*
X312749604Y-135527000D01*
X313050396Y-135527000D01*
X313345410Y-135468319D01*
X313623306Y-135353210D01*
X313873406Y-135186099D01*
X314086099Y-134973406D01*
X314253210Y-134723306D01*
X314286073Y-134643968D01*
X332894000Y-134906483D01*
X332894000Y-135238124D01*
X332997836Y-135760144D01*
X333201519Y-136251877D01*
X333497219Y-136694425D01*
X333873575Y-137070781D01*
X334316123Y-137366481D01*
X334807856Y-137570164D01*
X335329876Y-137674000D01*
X335862124Y-137674000D01*
X336384144Y-137570164D01*
X336737548Y-137423779D01*
X336698000Y-137622604D01*
X336698000Y-137923396D01*
X336756681Y-138218410D01*
X336871790Y-138496306D01*
X337038901Y-138746406D01*
X337251594Y-138959099D01*
X337501694Y-139126210D01*
X337779590Y-139241319D01*
X338074604Y-139300000D01*
X338375396Y-139300000D01*
X338670410Y-139241319D01*
X338948306Y-139126210D01*
X339198406Y-138959099D01*
X339411099Y-138746406D01*
X339578210Y-138496306D01*
X339693319Y-138218410D01*
X339752000Y-137923396D01*
X339752000Y-137622604D01*
X339693319Y-137327590D01*
X339578210Y-137049694D01*
X339497704Y-136929208D01*
X339603210Y-136771306D01*
X339718319Y-136493410D01*
X339777000Y-136198396D01*
X339777000Y-135897604D01*
X339718319Y-135602590D01*
X339603210Y-135324694D01*
X339436099Y-135074594D01*
X339359197Y-134997692D01*
X371035064Y-135444565D01*
X371097836Y-135760144D01*
X371301519Y-136251877D01*
X371597219Y-136694425D01*
X371973575Y-137070781D01*
X372416123Y-137366481D01*
X372907856Y-137570164D01*
X373429876Y-137674000D01*
X373962124Y-137674000D01*
X374484144Y-137570164D01*
X374870646Y-137410069D01*
X374823000Y-137649604D01*
X374823000Y-137950396D01*
X374881681Y-138245410D01*
X374996790Y-138523306D01*
X375163901Y-138773406D01*
X375376594Y-138986099D01*
X375626694Y-139153210D01*
X375904590Y-139268319D01*
X376199604Y-139327000D01*
X376500396Y-139327000D01*
X376795410Y-139268319D01*
X377073306Y-139153210D01*
X377323406Y-138986099D01*
X377536099Y-138773406D01*
X377703210Y-138523306D01*
X377818319Y-138245410D01*
X377877000Y-137950396D01*
X377877000Y-137649604D01*
X377818319Y-137354590D01*
X377703210Y-137076694D01*
X377622704Y-136956208D01*
X377728210Y-136798306D01*
X377843319Y-136520410D01*
X377902000Y-136225396D01*
X377902000Y-135924604D01*
X377843319Y-135629590D01*
X377806247Y-135540091D01*
X394598209Y-135776987D01*
X394623017Y-135774897D01*
X394646941Y-135768007D01*
X394669061Y-135756581D01*
X394694398Y-135734959D01*
X400544398Y-129234959D01*
X400559159Y-129214910D01*
X400569725Y-129192367D01*
X400575690Y-129168196D01*
X400577000Y-129149859D01*
X400527000Y-84199859D01*
X400524532Y-84175085D01*
X400517279Y-84151269D01*
X400505518Y-84129325D01*
X400487388Y-84107846D01*
X394687388Y-78607846D01*
X394667730Y-78592568D01*
X394645470Y-78581419D01*
X394621462Y-78574827D01*
X394600275Y-78573000D01*
X387600856Y-78557854D01*
X387354781Y-78189575D01*
X386978425Y-77813219D01*
X386535877Y-77517519D01*
X386044144Y-77313836D01*
X385522124Y-77210000D01*
X384989876Y-77210000D01*
X384467856Y-77313836D01*
X384387903Y-77346954D01*
X384427000Y-77150396D01*
X384427000Y-76849604D01*
X384368319Y-76554590D01*
X384253210Y-76276694D01*
X384086099Y-76026594D01*
X383873406Y-75813901D01*
X383650175Y-75664743D01*
X383618319Y-75504590D01*
X383503210Y-75226694D01*
X383336099Y-74976594D01*
X383123406Y-74763901D01*
X382873306Y-74596790D01*
X382595410Y-74481681D01*
X382300396Y-74423000D01*
X381999604Y-74423000D01*
X381704590Y-74481681D01*
X381426694Y-74596790D01*
X381176594Y-74763901D01*
X380963901Y-74976594D01*
X380796790Y-75226694D01*
X380681681Y-75504590D01*
X380623000Y-75799604D01*
X380623000Y-76100396D01*
X380681681Y-76395410D01*
X380796790Y-76673306D01*
X380963901Y-76923406D01*
X381176594Y-77136099D01*
X381399825Y-77285257D01*
X381431681Y-77445410D01*
X381546790Y-77723306D01*
X381713901Y-77973406D01*
X381926594Y-78186099D01*
X382176694Y-78353210D01*
X382454590Y-78468319D01*
X382749604Y-78527000D01*
X382931760Y-78527000D01*
X382917915Y-78547721D01*
X349445689Y-78475291D01*
X349254781Y-78189575D01*
X348878425Y-77813219D01*
X348435877Y-77517519D01*
X347944144Y-77313836D01*
X347422124Y-77210000D01*
X346889876Y-77210000D01*
X346374593Y-77312496D01*
X346377000Y-77300396D01*
X346377000Y-76999604D01*
X346318319Y-76704590D01*
X346203210Y-76426694D01*
X346036099Y-76176594D01*
X345823406Y-75963901D01*
X345577000Y-75799258D01*
X345577000Y-75649604D01*
X345518319Y-75354590D01*
X345403210Y-75076694D01*
X345236099Y-74826594D01*
X345023406Y-74613901D01*
X344773306Y-74446790D01*
X344495410Y-74331681D01*
X344200396Y-74273000D01*
X343899604Y-74273000D01*
X343604590Y-74331681D01*
X343326694Y-74446790D01*
X343076594Y-74613901D01*
X342863901Y-74826594D01*
X342696790Y-75076694D01*
X342581681Y-75354590D01*
X342523000Y-75649604D01*
X342523000Y-75950396D01*
X342581681Y-76245410D01*
X342696790Y-76523306D01*
X342863901Y-76773406D01*
X343076594Y-76986099D01*
X343323000Y-77150742D01*
X343323000Y-77300396D01*
X343381681Y-77595410D01*
X343496790Y-77873306D01*
X343663901Y-78123406D01*
X343876594Y-78336099D01*
X344067492Y-78463653D01*
X311290522Y-78392727D01*
X311154781Y-78189575D01*
X310778425Y-77813219D01*
X310335877Y-77517519D01*
X309844144Y-77313836D01*
X309322124Y-77210000D01*
X308789876Y-77210000D01*
X308267856Y-77313836D01*
X308149904Y-77362694D01*
X308143319Y-77329590D01*
X308028210Y-77051694D01*
X307861099Y-76801594D01*
X307648406Y-76588901D01*
X307398306Y-76421790D01*
X307344189Y-76399374D01*
X307418319Y-76220410D01*
X307477000Y-75925396D01*
X307477000Y-75624604D01*
X307418319Y-75329590D01*
X307303210Y-75051694D01*
X307136099Y-74801594D01*
X306923406Y-74588901D01*
X306673306Y-74421790D01*
X306395410Y-74306681D01*
X306100396Y-74248000D01*
X305799604Y-74248000D01*
X305504590Y-74306681D01*
X305226694Y-74421790D01*
X304976594Y-74588901D01*
X304763901Y-74801594D01*
X304596790Y-75051694D01*
X304481681Y-75329590D01*
X304423000Y-75624604D01*
X304423000Y-75925396D01*
X304481681Y-76220410D01*
X304596790Y-76498306D01*
X304763901Y-76748406D01*
X304976594Y-76961099D01*
X305226694Y-77128210D01*
X305280811Y-77150626D01*
X305206681Y-77329590D01*
X305148000Y-77624604D01*
X305148000Y-77925396D01*
X305206681Y-78220410D01*
X305272664Y-78379705D01*
X294123818Y-78355580D01*
X293945410Y-78281681D01*
X293650396Y-78223000D01*
X293349604Y-78223000D01*
X293054590Y-78281681D01*
X292882666Y-78352895D01*
X291912264Y-78350795D01*
X291745410Y-78281681D01*
X291450396Y-78223000D01*
X291149604Y-78223000D01*
X290854590Y-78281681D01*
X290694099Y-78348159D01*
X273135355Y-78310164D01*
X273054781Y-78189575D01*
X272678425Y-77813219D01*
X272235877Y-77517519D01*
X271744144Y-77313836D01*
X271222124Y-77210000D01*
X270689876Y-77210000D01*
X270167856Y-77313836D01*
X269676123Y-77517519D01*
X269233575Y-77813219D01*
X268857219Y-78189575D01*
X268782938Y-78300746D01*
X265256259Y-78293114D01*
X265473306Y-78203210D01*
X265723406Y-78036099D01*
X265936099Y-77823406D01*
X266103210Y-77573306D01*
X266218319Y-77295410D01*
X266219871Y-77287608D01*
X266296790Y-77473306D01*
X266463901Y-77723406D01*
X266676594Y-77936099D01*
X266926694Y-78103210D01*
X267204590Y-78218319D01*
X267499604Y-78277000D01*
X267800396Y-78277000D01*
X268095410Y-78218319D01*
X268373306Y-78103210D01*
X268623406Y-77936099D01*
X268836099Y-77723406D01*
X269003210Y-77473306D01*
X269118319Y-77195410D01*
X269177000Y-76900396D01*
X269177000Y-76599604D01*
X269118319Y-76304590D01*
X269018930Y-76064645D01*
X269068319Y-75945410D01*
X269127000Y-75650396D01*
X269127000Y-75349604D01*
X269068319Y-75054590D01*
X268953210Y-74776694D01*
X268786099Y-74526594D01*
X268573406Y-74313901D01*
X268323306Y-74146790D01*
X268045410Y-74031681D01*
X267750396Y-73973000D01*
X267449604Y-73973000D01*
X267154590Y-74031681D01*
X266876694Y-74146790D01*
X266626594Y-74313901D01*
X266413901Y-74526594D01*
X266246790Y-74776694D01*
X266131681Y-75054590D01*
X266073000Y-75349604D01*
X266073000Y-75650396D01*
X266131681Y-75945410D01*
X266231070Y-76185355D01*
X266181681Y-76304590D01*
X266180129Y-76312392D01*
X266103210Y-76126694D01*
X265936099Y-75876594D01*
X265723406Y-75663901D01*
X265473306Y-75496790D01*
X265195410Y-75381681D01*
X264900396Y-75323000D01*
X264599604Y-75323000D01*
X264304590Y-75381681D01*
X264026694Y-75496790D01*
X263776594Y-75663901D01*
X263563901Y-75876594D01*
X263396790Y-76126694D01*
X263281681Y-76404590D01*
X263223000Y-76699604D01*
X263223000Y-77000396D01*
X263281681Y-77295410D01*
X263396790Y-77573306D01*
X263563901Y-77823406D01*
X263776594Y-78036099D01*
X264026694Y-78203210D01*
X264238423Y-78290912D01*
X234980189Y-78227600D01*
X234954781Y-78189575D01*
X234578425Y-77813219D01*
X234135877Y-77517519D01*
X233644144Y-77313836D01*
X233122124Y-77210000D01*
X232589876Y-77210000D01*
X232067856Y-77313836D01*
X231576123Y-77517519D01*
X231133575Y-77813219D01*
X230757219Y-78189575D01*
X230737945Y-78218420D01*
X228418759Y-78213402D01*
X228645410Y-78168319D01*
X228923306Y-78053210D01*
X229173406Y-77886099D01*
X229386099Y-77673406D01*
X229553210Y-77423306D01*
X229597402Y-77316617D01*
X229649604Y-77327000D01*
X229950396Y-77327000D01*
X230245410Y-77268319D01*
X230523306Y-77153210D01*
X230773406Y-76986099D01*
X230986099Y-76773406D01*
X231153210Y-76523306D01*
X231268319Y-76245410D01*
X231327000Y-75950396D01*
X231327000Y-75649604D01*
X231268319Y-75354590D01*
X231153210Y-75076694D01*
X230986099Y-74826594D01*
X230773406Y-74613901D01*
X230523306Y-74446790D01*
X230245410Y-74331681D01*
X229950396Y-74273000D01*
X229649604Y-74273000D01*
X229354590Y-74331681D01*
X229076694Y-74446790D01*
X228826594Y-74613901D01*
X228613901Y-74826594D01*
X228446790Y-75076694D01*
X228402598Y-75183383D01*
X228350396Y-75173000D01*
X228049604Y-75173000D01*
X227754590Y-75231681D01*
X227476694Y-75346790D01*
X227226594Y-75513901D01*
X227013901Y-75726594D01*
X226846790Y-75976694D01*
X226731681Y-76254590D01*
X226673000Y-76549604D01*
X226673000Y-76850396D01*
X226731681Y-77145410D01*
X226846790Y-77423306D01*
X227013901Y-77673406D01*
X227226594Y-77886099D01*
X227476694Y-78053210D01*
X227754590Y-78168319D01*
X227976429Y-78212445D01*
X196810211Y-78145005D01*
X196478425Y-77813219D01*
X196035877Y-77517519D01*
X195544144Y-77313836D01*
X195022124Y-77210000D01*
X194489876Y-77210000D01*
X193967856Y-77313836D01*
X193476123Y-77517519D01*
X193406788Y-77563847D01*
X193464475Y-77424578D01*
X193527000Y-77110245D01*
X193527000Y-76789755D01*
X193464475Y-76475422D01*
X193341828Y-76179327D01*
X193318513Y-76144434D01*
X193377000Y-75850396D01*
X193377000Y-75549604D01*
X193318319Y-75254590D01*
X193203210Y-74976694D01*
X193036099Y-74726594D01*
X192823406Y-74513901D01*
X192573306Y-74346790D01*
X192295410Y-74231681D01*
X192000396Y-74173000D01*
X191699604Y-74173000D01*
X191404590Y-74231681D01*
X191126694Y-74346790D01*
X190876594Y-74513901D01*
X190663901Y-74726594D01*
X190496790Y-74976694D01*
X190381681Y-75254590D01*
X190323000Y-75549604D01*
X190323000Y-75850396D01*
X190381681Y-76145410D01*
X190426951Y-76254701D01*
X190335525Y-76475422D01*
X190273000Y-76789755D01*
X190273000Y-77110245D01*
X190335525Y-77424578D01*
X190458172Y-77720673D01*
X190636227Y-77987152D01*
X190781033Y-78131958D01*
X186459062Y-78122606D01*
X186434280Y-78124993D01*
X186410440Y-78132168D01*
X186388458Y-78143857D01*
X186371954Y-78156929D01*
X176665680Y-87251134D01*
X176626123Y-87267519D01*
X176183575Y-87563219D01*
X175807219Y-87939575D01*
X175600158Y-88249465D01*
X175138167Y-88682323D01*
X175121755Y-88701044D01*
X175109311Y-88722607D01*
X175101312Y-88746184D01*
X175098067Y-88770868D01*
X169836485Y-88770868D01*
X169744904Y-84271961D01*
X169873406Y-84186099D01*
X170086099Y-83973406D01*
X170253210Y-83723306D01*
X170368319Y-83445410D01*
X170427000Y-83150396D01*
X170427000Y-82849604D01*
X170368319Y-82554590D01*
X170253210Y-82276694D01*
X170086099Y-82026594D01*
X169873406Y-81813901D01*
X169692405Y-81692960D01*
X169639615Y-79099604D01*
X176573000Y-79099604D01*
X176573000Y-79400396D01*
X176631681Y-79695410D01*
X176746790Y-79973306D01*
X176913901Y-80223406D01*
X177126594Y-80436099D01*
X177376694Y-80603210D01*
X177654590Y-80718319D01*
X177949604Y-80777000D01*
X178250396Y-80777000D01*
X178545410Y-80718319D01*
X178823306Y-80603210D01*
X179073406Y-80436099D01*
X179286099Y-80223406D01*
X179453210Y-79973306D01*
X179568319Y-79695410D01*
X179627000Y-79400396D01*
X179627000Y-79099604D01*
X179568319Y-78804590D01*
X179453210Y-78526694D01*
X179286099Y-78276594D01*
X179073406Y-78063901D01*
X178823306Y-77896790D01*
X178545410Y-77781681D01*
X178250396Y-77723000D01*
X177949604Y-77723000D01*
X177654590Y-77781681D01*
X177376694Y-77896790D01*
X177126594Y-78063901D01*
X176913901Y-78276594D01*
X176746790Y-78526694D01*
X176631681Y-78804590D01*
X176573000Y-79099604D01*
X169639615Y-79099604D01*
X169510353Y-72749604D01*
X182423000Y-72749604D01*
X182423000Y-73050396D01*
X182481681Y-73345410D01*
X182596790Y-73623306D01*
X182763901Y-73873406D01*
X182976594Y-74086099D01*
X183226694Y-74253210D01*
X183504590Y-74368319D01*
X183799604Y-74427000D01*
X184100396Y-74427000D01*
X184395410Y-74368319D01*
X184673306Y-74253210D01*
X184923406Y-74086099D01*
X185136099Y-73873406D01*
X185303210Y-73623306D01*
X185418319Y-73345410D01*
X185477000Y-73050396D01*
X185477000Y-72749604D01*
X185418319Y-72454590D01*
X185303210Y-72176694D01*
X185174379Y-71983884D01*
X185276594Y-72086099D01*
X185526694Y-72253210D01*
X185804590Y-72368319D01*
X186099604Y-72427000D01*
X186400396Y-72427000D01*
X186695410Y-72368319D01*
X186973306Y-72253210D01*
X187223406Y-72086099D01*
X187436099Y-71873406D01*
X187603210Y-71623306D01*
X187718319Y-71345410D01*
X187747321Y-71199604D01*
X218773000Y-71199604D01*
X218773000Y-71500396D01*
X218831681Y-71795410D01*
X218946790Y-72073306D01*
X219113901Y-72323406D01*
X219326594Y-72536099D01*
X219576694Y-72703210D01*
X219854590Y-72818319D01*
X220149604Y-72877000D01*
X220450396Y-72877000D01*
X220633254Y-72840628D01*
X220646790Y-72873306D01*
X220813901Y-73123406D01*
X221026594Y-73336099D01*
X221276694Y-73503210D01*
X221554590Y-73618319D01*
X221849604Y-73677000D01*
X222150396Y-73677000D01*
X222445410Y-73618319D01*
X222723306Y-73503210D01*
X222973406Y-73336099D01*
X223186099Y-73123406D01*
X223235411Y-73049604D01*
X258523000Y-73049604D01*
X258523000Y-73350396D01*
X258581681Y-73645410D01*
X258696790Y-73923306D01*
X258863901Y-74173406D01*
X259076594Y-74386099D01*
X259326694Y-74553210D01*
X259604590Y-74668319D01*
X259899604Y-74727000D01*
X260200396Y-74727000D01*
X260495410Y-74668319D01*
X260773306Y-74553210D01*
X261023406Y-74386099D01*
X261236099Y-74173406D01*
X261403210Y-73923306D01*
X261518319Y-73645410D01*
X261577000Y-73350396D01*
X261577000Y-73049604D01*
X261518319Y-72754590D01*
X261506891Y-72727000D01*
X261700396Y-72727000D01*
X261995410Y-72668319D01*
X262273306Y-72553210D01*
X262523406Y-72386099D01*
X262736099Y-72173406D01*
X262903210Y-71923306D01*
X263018319Y-71645410D01*
X263067212Y-71399604D01*
X296723000Y-71399604D01*
X296723000Y-71700396D01*
X296781681Y-71995410D01*
X296896790Y-72273306D01*
X297063901Y-72523406D01*
X297276594Y-72736099D01*
X297526694Y-72903210D01*
X297804590Y-73018319D01*
X298099604Y-73077000D01*
X298400396Y-73077000D01*
X298695410Y-73018319D01*
X298973306Y-72903210D01*
X299223406Y-72736099D01*
X299436099Y-72523406D01*
X299603210Y-72273306D01*
X299718319Y-71995410D01*
X299777000Y-71700396D01*
X299777000Y-71399604D01*
X333723000Y-71399604D01*
X333723000Y-71700396D01*
X333781681Y-71995410D01*
X333896790Y-72273306D01*
X334063901Y-72523406D01*
X334276594Y-72736099D01*
X334526694Y-72903210D01*
X334804590Y-73018319D01*
X335099604Y-73077000D01*
X335400396Y-73077000D01*
X335695410Y-73018319D01*
X335973306Y-72903210D01*
X336223406Y-72736099D01*
X336436099Y-72523406D01*
X336603210Y-72273306D01*
X336718319Y-71995410D01*
X336777000Y-71700396D01*
X336777000Y-71549604D01*
X372123000Y-71549604D01*
X372123000Y-71850396D01*
X372181681Y-72145410D01*
X372296790Y-72423306D01*
X372463901Y-72673406D01*
X372676594Y-72886099D01*
X372926694Y-73053210D01*
X373204590Y-73168319D01*
X373499604Y-73227000D01*
X373800396Y-73227000D01*
X374095410Y-73168319D01*
X374373306Y-73053210D01*
X374623406Y-72886099D01*
X374836099Y-72673406D01*
X375003210Y-72423306D01*
X375118319Y-72145410D01*
X375177000Y-71850396D01*
X375177000Y-71549604D01*
X375118319Y-71254590D01*
X375003210Y-70976694D01*
X374836099Y-70726594D01*
X374623406Y-70513901D01*
X374373306Y-70346790D01*
X374095410Y-70231681D01*
X373800396Y-70173000D01*
X373499604Y-70173000D01*
X373204590Y-70231681D01*
X372926694Y-70346790D01*
X372676594Y-70513901D01*
X372463901Y-70726594D01*
X372296790Y-70976694D01*
X372181681Y-71254590D01*
X372123000Y-71549604D01*
X336777000Y-71549604D01*
X336777000Y-71399604D01*
X336718319Y-71104590D01*
X336603210Y-70826694D01*
X336436099Y-70576594D01*
X336223406Y-70363901D01*
X335973306Y-70196790D01*
X335695410Y-70081681D01*
X335400396Y-70023000D01*
X335099604Y-70023000D01*
X334804590Y-70081681D01*
X334526694Y-70196790D01*
X334276594Y-70363901D01*
X334063901Y-70576594D01*
X333896790Y-70826694D01*
X333781681Y-71104590D01*
X333723000Y-71399604D01*
X299777000Y-71399604D01*
X299718319Y-71104590D01*
X299603210Y-70826694D01*
X299436099Y-70576594D01*
X299223406Y-70363901D01*
X298973306Y-70196790D01*
X298695410Y-70081681D01*
X298400396Y-70023000D01*
X298099604Y-70023000D01*
X297804590Y-70081681D01*
X297526694Y-70196790D01*
X297276594Y-70363901D01*
X297063901Y-70576594D01*
X296896790Y-70826694D01*
X296781681Y-71104590D01*
X296723000Y-71399604D01*
X263067212Y-71399604D01*
X263077000Y-71350396D01*
X263077000Y-71049604D01*
X263018319Y-70754590D01*
X262903210Y-70476694D01*
X262736099Y-70226594D01*
X262523406Y-70013901D01*
X262273306Y-69846790D01*
X261995410Y-69731681D01*
X261700396Y-69673000D01*
X261399604Y-69673000D01*
X261104590Y-69731681D01*
X260826694Y-69846790D01*
X260576594Y-70013901D01*
X260363901Y-70226594D01*
X260196790Y-70476694D01*
X260081681Y-70754590D01*
X260023000Y-71049604D01*
X260023000Y-71350396D01*
X260081681Y-71645410D01*
X260093109Y-71673000D01*
X259899604Y-71673000D01*
X259604590Y-71731681D01*
X259326694Y-71846790D01*
X259076594Y-72013901D01*
X258863901Y-72226594D01*
X258696790Y-72476694D01*
X258581681Y-72754590D01*
X258523000Y-73049604D01*
X223235411Y-73049604D01*
X223353210Y-72873306D01*
X223468319Y-72595410D01*
X223527000Y-72300396D01*
X223527000Y-71999604D01*
X223468319Y-71704590D01*
X223353210Y-71426694D01*
X223186099Y-71176594D01*
X222973406Y-70963901D01*
X222723306Y-70796790D01*
X222445410Y-70681681D01*
X222150396Y-70623000D01*
X221849604Y-70623000D01*
X221666746Y-70659372D01*
X221653210Y-70626694D01*
X221486099Y-70376594D01*
X221273406Y-70163901D01*
X221023306Y-69996790D01*
X220745410Y-69881681D01*
X220450396Y-69823000D01*
X220149604Y-69823000D01*
X219854590Y-69881681D01*
X219576694Y-69996790D01*
X219326594Y-70163901D01*
X219113901Y-70376594D01*
X218946790Y-70626694D01*
X218831681Y-70904590D01*
X218773000Y-71199604D01*
X187747321Y-71199604D01*
X187777000Y-71050396D01*
X187777000Y-70749604D01*
X187718319Y-70454590D01*
X187603210Y-70176694D01*
X187436099Y-69926594D01*
X187223406Y-69713901D01*
X186973306Y-69546790D01*
X186695410Y-69431681D01*
X186400396Y-69373000D01*
X186099604Y-69373000D01*
X185804590Y-69431681D01*
X185526694Y-69546790D01*
X185276594Y-69713901D01*
X185063901Y-69926594D01*
X184896790Y-70176694D01*
X184781681Y-70454590D01*
X184723000Y-70749604D01*
X184723000Y-71050396D01*
X184781681Y-71345410D01*
X184896790Y-71623306D01*
X185025621Y-71816116D01*
X184923406Y-71713901D01*
X184673306Y-71546790D01*
X184395410Y-71431681D01*
X184100396Y-71373000D01*
X183799604Y-71373000D01*
X183504590Y-71431681D01*
X183226694Y-71546790D01*
X182976594Y-71713901D01*
X182763901Y-71926594D01*
X182596790Y-72176694D01*
X182481681Y-72454590D01*
X182423000Y-72749604D01*
X169510353Y-72749604D01*
X169475747Y-71049604D01*
X173073000Y-71049604D01*
X173073000Y-71350396D01*
X173131681Y-71645410D01*
X173246790Y-71923306D01*
X173413901Y-72173406D01*
X173626594Y-72386099D01*
X173876694Y-72553210D01*
X174154590Y-72668319D01*
X174449604Y-72727000D01*
X174750396Y-72727000D01*
X175045410Y-72668319D01*
X175323306Y-72553210D01*
X175573406Y-72386099D01*
X175786099Y-72173406D01*
X175953210Y-71923306D01*
X176068319Y-71645410D01*
X176127000Y-71350396D01*
X176127000Y-71049604D01*
X176068319Y-70754590D01*
X175953210Y-70476694D01*
X175786099Y-70226594D01*
X175573406Y-70013901D01*
X175323306Y-69846790D01*
X175045410Y-69731681D01*
X174750396Y-69673000D01*
X174449604Y-69673000D01*
X174154590Y-69731681D01*
X173876694Y-69846790D01*
X173626594Y-70013901D01*
X173413901Y-70226594D01*
X173246790Y-70476694D01*
X173131681Y-70754590D01*
X173073000Y-71049604D01*
X169475747Y-71049604D01*
X169376974Y-66197415D01*
X169376951Y-66196474D01*
X169329188Y-64477000D01*
X404123157Y-64477000D01*
X404222842Y-144872891D01*
%TA.AperFunction,Conductor*%
D31*
G36*
X404222842Y-144872891D02*
G01*
X207376738Y-144704286D01*
X207250296Y-144619800D01*
X206972400Y-144504691D01*
X206677386Y-144446010D01*
X206376594Y-144446010D01*
X206081580Y-144504691D01*
X205803684Y-144619800D01*
X205679418Y-144702832D01*
X183976523Y-144684243D01*
X184123406Y-144586099D01*
X184336099Y-144373406D01*
X184503210Y-144123306D01*
X184618319Y-143845410D01*
X184677000Y-143550396D01*
X184677000Y-143249604D01*
X184618319Y-142954590D01*
X184503210Y-142676694D01*
X184336099Y-142426594D01*
X184123406Y-142213901D01*
X183873306Y-142046790D01*
X183595410Y-141931681D01*
X183300396Y-141873000D01*
X182999604Y-141873000D01*
X182704590Y-141931681D01*
X182426694Y-142046790D01*
X182176594Y-142213901D01*
X181963901Y-142426594D01*
X181796790Y-142676694D01*
X181681681Y-142954590D01*
X181623000Y-143249604D01*
X181623000Y-143550396D01*
X181681681Y-143845410D01*
X181796790Y-144123306D01*
X181963901Y-144373406D01*
X182176594Y-144586099D01*
X182321355Y-144682825D01*
X175527000Y-144677005D01*
X175527000Y-144499604D01*
X175468319Y-144204590D01*
X175353210Y-143926694D01*
X175186099Y-143676594D01*
X174973406Y-143463901D01*
X174723306Y-143296790D01*
X174445410Y-143181681D01*
X174150396Y-143123000D01*
X173849604Y-143123000D01*
X173554590Y-143181681D01*
X173276694Y-143296790D01*
X173026594Y-143463901D01*
X172813901Y-143676594D01*
X172646790Y-143926694D01*
X172531681Y-144204590D01*
X172473000Y-144499604D01*
X172473000Y-144674390D01*
X170974444Y-144673106D01*
X170896612Y-140849604D01*
X194873000Y-140849604D01*
X194873000Y-141150396D01*
X194931681Y-141445410D01*
X195046790Y-141723306D01*
X195213901Y-141973406D01*
X195426594Y-142186099D01*
X195676694Y-142353210D01*
X195954590Y-142468319D01*
X196249604Y-142527000D01*
X196550396Y-142527000D01*
X196845410Y-142468319D01*
X197123306Y-142353210D01*
X197373406Y-142186099D01*
X197586099Y-141973406D01*
X197753210Y-141723306D01*
X197825160Y-141549604D01*
X229723000Y-141549604D01*
X229723000Y-141850396D01*
X229781681Y-142145410D01*
X229896790Y-142423306D01*
X230063901Y-142673406D01*
X230276594Y-142886099D01*
X230526694Y-143053210D01*
X230804590Y-143168319D01*
X231099604Y-143227000D01*
X231400396Y-143227000D01*
X231695410Y-143168319D01*
X231973306Y-143053210D01*
X232223406Y-142886099D01*
X232436099Y-142673406D01*
X232603210Y-142423306D01*
X232718319Y-142145410D01*
X232777000Y-141850396D01*
X232777000Y-141549604D01*
X232718319Y-141254590D01*
X232603210Y-140976694D01*
X232554985Y-140904520D01*
X232586099Y-140873406D01*
X232753210Y-140623306D01*
X232868319Y-140345410D01*
X232927000Y-140050396D01*
X232927000Y-139749604D01*
X232907110Y-139649604D01*
X267973000Y-139649604D01*
X267973000Y-139950396D01*
X268031681Y-140245410D01*
X268146790Y-140523306D01*
X268313901Y-140773406D01*
X268526594Y-140986099D01*
X268776694Y-141153210D01*
X269054590Y-141268319D01*
X269349604Y-141327000D01*
X269650396Y-141327000D01*
X269945410Y-141268319D01*
X269946973Y-141267671D01*
X269931681Y-141304590D01*
X269873000Y-141599604D01*
X269873000Y-141900396D01*
X269931681Y-142195410D01*
X270046790Y-142473306D01*
X270213901Y-142723406D01*
X270426594Y-142936099D01*
X270676694Y-143103210D01*
X270954590Y-143218319D01*
X271249604Y-143277000D01*
X271550396Y-143277000D01*
X271845410Y-143218319D01*
X272123306Y-143103210D01*
X272373406Y-142936099D01*
X272586099Y-142723406D01*
X272753210Y-142473306D01*
X272868319Y-142195410D01*
X272927000Y-141900396D01*
X272927000Y-141599604D01*
X272868319Y-141304590D01*
X272753210Y-141026694D01*
X272586099Y-140776594D01*
X272373406Y-140563901D01*
X272123306Y-140396790D01*
X271845410Y-140281681D01*
X271684146Y-140249604D01*
X305823000Y-140249604D01*
X305823000Y-140550396D01*
X305881681Y-140845410D01*
X305996790Y-141123306D01*
X306163901Y-141373406D01*
X306376594Y-141586099D01*
X306626694Y-141753210D01*
X306904590Y-141868319D01*
X307199604Y-141927000D01*
X307500396Y-141927000D01*
X307795410Y-141868319D01*
X307962524Y-141799098D01*
X307981681Y-141895410D01*
X308096790Y-142173306D01*
X308263901Y-142423406D01*
X308476594Y-142636099D01*
X308726694Y-142803210D01*
X309004590Y-142918319D01*
X309299604Y-142977000D01*
X309600396Y-142977000D01*
X309895410Y-142918319D01*
X310173306Y-142803210D01*
X310423406Y-142636099D01*
X310636099Y-142423406D01*
X310803210Y-142173306D01*
X310918319Y-141895410D01*
X310977000Y-141600396D01*
X310977000Y-141299604D01*
X310918319Y-141004590D01*
X310803210Y-140726694D01*
X310636099Y-140476594D01*
X310423406Y-140263901D01*
X310173306Y-140096790D01*
X309895410Y-139981681D01*
X309600396Y-139923000D01*
X309299604Y-139923000D01*
X309004590Y-139981681D01*
X308837476Y-140050902D01*
X308818319Y-139954590D01*
X308774833Y-139849604D01*
X343873000Y-139849604D01*
X343873000Y-140150396D01*
X343931681Y-140445410D01*
X344046790Y-140723306D01*
X344213901Y-140973406D01*
X344426594Y-141186099D01*
X344676694Y-141353210D01*
X344954590Y-141468319D01*
X345249604Y-141527000D01*
X345550396Y-141527000D01*
X345845410Y-141468319D01*
X346123306Y-141353210D01*
X346373406Y-141186099D01*
X346586099Y-140973406D01*
X346753210Y-140723306D01*
X346868319Y-140445410D01*
X346927000Y-140150396D01*
X346927000Y-139849604D01*
X346877273Y-139599604D01*
X354073000Y-139599604D01*
X354073000Y-139900396D01*
X354131681Y-140195410D01*
X354246790Y-140473306D01*
X354413901Y-140723406D01*
X354626594Y-140936099D01*
X354876694Y-141103210D01*
X355154590Y-141218319D01*
X355449604Y-141277000D01*
X355750396Y-141277000D01*
X356045410Y-141218319D01*
X356323306Y-141103210D01*
X356573406Y-140936099D01*
X356786099Y-140723406D01*
X356953210Y-140473306D01*
X357045870Y-140249604D01*
X381873000Y-140249604D01*
X381873000Y-140550396D01*
X381931681Y-140845410D01*
X382046790Y-141123306D01*
X382213901Y-141373406D01*
X382426594Y-141586099D01*
X382676694Y-141753210D01*
X382954590Y-141868319D01*
X383249604Y-141927000D01*
X383550396Y-141927000D01*
X383845410Y-141868319D01*
X384123306Y-141753210D01*
X384314765Y-141625282D01*
X384396790Y-141823306D01*
X384563901Y-142073406D01*
X384776594Y-142286099D01*
X385026694Y-142453210D01*
X385304590Y-142568319D01*
X385599604Y-142627000D01*
X385900396Y-142627000D01*
X386195410Y-142568319D01*
X386473306Y-142453210D01*
X386723406Y-142286099D01*
X386936099Y-142073406D01*
X387103210Y-141823306D01*
X387218319Y-141545410D01*
X387277000Y-141250396D01*
X387277000Y-140949604D01*
X387218319Y-140654590D01*
X387103210Y-140376694D01*
X386936099Y-140126594D01*
X386723406Y-139913901D01*
X386473306Y-139746790D01*
X386195410Y-139631681D01*
X385900396Y-139573000D01*
X385599604Y-139573000D01*
X385304590Y-139631681D01*
X385026694Y-139746790D01*
X384835235Y-139874718D01*
X384753210Y-139676694D01*
X384586099Y-139426594D01*
X384373406Y-139213901D01*
X384123306Y-139046790D01*
X383845410Y-138931681D01*
X383550396Y-138873000D01*
X383249604Y-138873000D01*
X382954590Y-138931681D01*
X382676694Y-139046790D01*
X382426594Y-139213901D01*
X382213901Y-139426594D01*
X382046790Y-139676694D01*
X381931681Y-139954590D01*
X381873000Y-140249604D01*
X357045870Y-140249604D01*
X357068319Y-140195410D01*
X357127000Y-139900396D01*
X357127000Y-139599604D01*
X357068319Y-139304590D01*
X356953210Y-139026694D01*
X356926965Y-138987415D01*
X357003210Y-138873306D01*
X357118319Y-138595410D01*
X357177000Y-138300396D01*
X357177000Y-137999604D01*
X357118319Y-137704590D01*
X357003210Y-137426694D01*
X356836099Y-137176594D01*
X356623406Y-136963901D01*
X356373306Y-136796790D01*
X356095410Y-136681681D01*
X355800396Y-136623000D01*
X355499604Y-136623000D01*
X355204590Y-136681681D01*
X354926694Y-136796790D01*
X354676594Y-136963901D01*
X354463901Y-137176594D01*
X354296790Y-137426694D01*
X354181681Y-137704590D01*
X354123000Y-137999604D01*
X354123000Y-138300396D01*
X354181681Y-138595410D01*
X354296790Y-138873306D01*
X354323035Y-138912585D01*
X354246790Y-139026694D01*
X354131681Y-139304590D01*
X354073000Y-139599604D01*
X346877273Y-139599604D01*
X346868319Y-139554590D01*
X346753210Y-139276694D01*
X346586099Y-139026594D01*
X346373406Y-138813901D01*
X346123306Y-138646790D01*
X345845410Y-138531681D01*
X345550396Y-138473000D01*
X345249604Y-138473000D01*
X344954590Y-138531681D01*
X344676694Y-138646790D01*
X344426594Y-138813901D01*
X344213901Y-139026594D01*
X344046790Y-139276694D01*
X343931681Y-139554590D01*
X343873000Y-139849604D01*
X308774833Y-139849604D01*
X308703210Y-139676694D01*
X308536099Y-139426594D01*
X308323406Y-139213901D01*
X308073306Y-139046790D01*
X307795410Y-138931681D01*
X307500396Y-138873000D01*
X307199604Y-138873000D01*
X306904590Y-138931681D01*
X306626694Y-139046790D01*
X306376594Y-139213901D01*
X306163901Y-139426594D01*
X305996790Y-139676694D01*
X305881681Y-139954590D01*
X305823000Y-140249604D01*
X271684146Y-140249604D01*
X271550396Y-140223000D01*
X271249604Y-140223000D01*
X270954590Y-140281681D01*
X270953027Y-140282329D01*
X270968319Y-140245410D01*
X271027000Y-139950396D01*
X271027000Y-139649604D01*
X270968319Y-139354590D01*
X270853210Y-139076694D01*
X270686099Y-138826594D01*
X270473406Y-138613901D01*
X270223306Y-138446790D01*
X269945410Y-138331681D01*
X269650396Y-138273000D01*
X269349604Y-138273000D01*
X269054590Y-138331681D01*
X268776694Y-138446790D01*
X268526594Y-138613901D01*
X268313901Y-138826594D01*
X268146790Y-139076694D01*
X268031681Y-139354590D01*
X267973000Y-139649604D01*
X232907110Y-139649604D01*
X232868319Y-139454590D01*
X232753210Y-139176694D01*
X232586099Y-138926594D01*
X232373406Y-138713901D01*
X232123306Y-138546790D01*
X231845410Y-138431681D01*
X231550396Y-138373000D01*
X231249604Y-138373000D01*
X230954590Y-138431681D01*
X230676694Y-138546790D01*
X230426594Y-138713901D01*
X230213901Y-138926594D01*
X230046790Y-139176694D01*
X229931681Y-139454590D01*
X229873000Y-139749604D01*
X229873000Y-140050396D01*
X229931681Y-140345410D01*
X230046790Y-140623306D01*
X230095015Y-140695480D01*
X230063901Y-140726594D01*
X229896790Y-140976694D01*
X229781681Y-141254590D01*
X229723000Y-141549604D01*
X197825160Y-141549604D01*
X197868319Y-141445410D01*
X197927000Y-141150396D01*
X197927000Y-140849604D01*
X197868319Y-140554590D01*
X197753210Y-140276694D01*
X197586099Y-140026594D01*
X197373406Y-139813901D01*
X197123306Y-139646790D01*
X196845410Y-139531681D01*
X196550396Y-139473000D01*
X196249604Y-139473000D01*
X195954590Y-139531681D01*
X195676694Y-139646790D01*
X195426594Y-139813901D01*
X195213901Y-140026594D01*
X195046790Y-140276694D01*
X194931681Y-140554590D01*
X194873000Y-140849604D01*
X170896612Y-140849604D01*
X169836485Y-88770868D01*
X175098067Y-88770868D01*
X175099466Y-88794241D01*
X175204000Y-89476238D01*
X175204000Y-89928124D01*
X175307836Y-90450144D01*
X175379969Y-90624288D01*
X181824466Y-132669241D01*
X181830632Y-132693362D01*
X181841385Y-132715816D01*
X181856312Y-132735742D01*
X181874840Y-132752372D01*
X181896256Y-132765068D01*
X181919737Y-132773342D01*
X181924680Y-132773975D01*
X181916123Y-132777519D01*
X181473575Y-133073219D01*
X181097219Y-133449575D01*
X180801519Y-133892123D01*
X180597836Y-134383856D01*
X180494000Y-134905876D01*
X180494000Y-135438124D01*
X180597836Y-135960144D01*
X180801519Y-136451877D01*
X181097219Y-136894425D01*
X181473575Y-137270781D01*
X181916123Y-137566481D01*
X182407856Y-137770164D01*
X182929876Y-137874000D01*
X183462124Y-137874000D01*
X183984144Y-137770164D01*
X184173000Y-137691937D01*
X184173000Y-137725396D01*
X184231681Y-138020410D01*
X184346790Y-138298306D01*
X184513901Y-138548406D01*
X184726594Y-138761099D01*
X184976694Y-138928210D01*
X185254590Y-139043319D01*
X185549604Y-139102000D01*
X185850396Y-139102000D01*
X186145410Y-139043319D01*
X186423306Y-138928210D01*
X186673406Y-138761099D01*
X186886099Y-138548406D01*
X187053210Y-138298306D01*
X187168319Y-138020410D01*
X187227000Y-137725396D01*
X187227000Y-137424604D01*
X187168319Y-137129590D01*
X187053210Y-136851694D01*
X186886099Y-136601594D01*
X186673406Y-136388901D01*
X186423306Y-136221790D01*
X186145410Y-136106681D01*
X185850396Y-136048000D01*
X185757773Y-136048000D01*
X185794164Y-135960144D01*
X185898000Y-135438124D01*
X185898000Y-134905876D01*
X185794164Y-134383856D01*
X185590481Y-133892123D01*
X185294781Y-133449575D01*
X185039440Y-133194234D01*
X185295410Y-133143319D01*
X185573306Y-133028210D01*
X185823406Y-132861099D01*
X185852438Y-132832067D01*
X196995277Y-132989266D01*
X197173000Y-133043178D01*
X197173000Y-133310245D01*
X197235525Y-133624578D01*
X197358172Y-133920673D01*
X197536227Y-134187152D01*
X197762848Y-134413773D01*
X198029327Y-134591828D01*
X198325422Y-134714475D01*
X198639755Y-134777000D01*
X198960245Y-134777000D01*
X199274578Y-134714475D01*
X199570673Y-134591828D01*
X199837152Y-134413773D01*
X200063773Y-134187152D01*
X200241828Y-133920673D01*
X200364475Y-133624578D01*
X200379508Y-133549000D01*
X215845252Y-133549000D01*
X217039171Y-133431409D01*
X217541196Y-133279122D01*
X219162196Y-133301990D01*
X218901519Y-133692123D01*
X218697836Y-134183856D01*
X218594000Y-134705876D01*
X218594000Y-135238124D01*
X218697836Y-135760144D01*
X218901519Y-136251877D01*
X219197219Y-136694425D01*
X219573575Y-137070781D01*
X220016123Y-137366481D01*
X220507856Y-137570164D01*
X221029876Y-137674000D01*
X221562124Y-137674000D01*
X222084144Y-137570164D01*
X222497457Y-137398964D01*
X222448000Y-137647604D01*
X222448000Y-137948396D01*
X222506681Y-138243410D01*
X222621790Y-138521306D01*
X222788901Y-138771406D01*
X223001594Y-138984099D01*
X223251694Y-139151210D01*
X223529590Y-139266319D01*
X223824604Y-139325000D01*
X224125396Y-139325000D01*
X224420410Y-139266319D01*
X224698306Y-139151210D01*
X224948406Y-138984099D01*
X225161099Y-138771406D01*
X225328210Y-138521306D01*
X225443319Y-138243410D01*
X225502000Y-137948396D01*
X225502000Y-137647604D01*
X225443319Y-137352590D01*
X225328210Y-137074694D01*
X225247704Y-136954208D01*
X225353210Y-136796306D01*
X225468319Y-136518410D01*
X225527000Y-136223396D01*
X225527000Y-135922604D01*
X225468319Y-135627590D01*
X225353210Y-135349694D01*
X225186099Y-135099594D01*
X224973406Y-134886901D01*
X224723306Y-134719790D01*
X224445410Y-134604681D01*
X224150396Y-134546000D01*
X223966199Y-134546000D01*
X223894164Y-134183856D01*
X223690481Y-133692123D01*
X223470415Y-133362769D01*
X235832160Y-133537165D01*
X235908172Y-133720673D01*
X236086227Y-133987152D01*
X236312848Y-134213773D01*
X236579327Y-134391828D01*
X236875422Y-134514475D01*
X237189755Y-134577000D01*
X237510245Y-134577000D01*
X237824578Y-134514475D01*
X238120673Y-134391828D01*
X238127657Y-134387162D01*
X238276594Y-134536099D01*
X238526694Y-134703210D01*
X238804590Y-134818319D01*
X239099604Y-134877000D01*
X239400396Y-134877000D01*
X239695410Y-134818319D01*
X239973306Y-134703210D01*
X240223406Y-134536099D01*
X240436099Y-134323406D01*
X240603210Y-134073306D01*
X240718319Y-133795410D01*
X240755870Y-133606627D01*
X256942345Y-133834981D01*
X256797836Y-134183856D01*
X256694000Y-134705876D01*
X256694000Y-135238124D01*
X256797836Y-135760144D01*
X257001519Y-136251877D01*
X257297219Y-136694425D01*
X257673575Y-137070781D01*
X258116123Y-137366481D01*
X258607856Y-137570164D01*
X259129876Y-137674000D01*
X259662124Y-137674000D01*
X260184144Y-137570164D01*
X260559374Y-137414738D01*
X260523000Y-137597604D01*
X260523000Y-137898396D01*
X260581681Y-138193410D01*
X260696790Y-138471306D01*
X260863901Y-138721406D01*
X261076594Y-138934099D01*
X261326694Y-139101210D01*
X261604590Y-139216319D01*
X261899604Y-139275000D01*
X262200396Y-139275000D01*
X262495410Y-139216319D01*
X262773306Y-139101210D01*
X263023406Y-138934099D01*
X263236099Y-138721406D01*
X263403210Y-138471306D01*
X263518319Y-138193410D01*
X263577000Y-137898396D01*
X263577000Y-137597604D01*
X263518319Y-137302590D01*
X263403210Y-137024694D01*
X263322704Y-136904208D01*
X263428210Y-136746306D01*
X263543319Y-136468410D01*
X263602000Y-136173396D01*
X263602000Y-135872604D01*
X263543319Y-135577590D01*
X263428210Y-135299694D01*
X263261099Y-135049594D01*
X263048406Y-134836901D01*
X262798306Y-134669790D01*
X262520410Y-134554681D01*
X262225396Y-134496000D01*
X262056253Y-134496000D01*
X261994164Y-134183856D01*
X261878500Y-133904619D01*
X273642105Y-134070576D01*
X273746790Y-134323306D01*
X273913901Y-134573406D01*
X274126594Y-134786099D01*
X274376694Y-134953210D01*
X274654590Y-135068319D01*
X274949604Y-135127000D01*
X275250396Y-135127000D01*
X275545410Y-135068319D01*
X275823306Y-134953210D01*
X276073406Y-134786099D01*
X276286099Y-134573406D01*
X276352559Y-134473942D01*
X276379327Y-134491828D01*
X276675422Y-134614475D01*
X276989755Y-134677000D01*
X277310245Y-134677000D01*
X277624578Y-134614475D01*
X277920673Y-134491828D01*
X278187152Y-134313773D01*
X278363738Y-134137187D01*
X294860825Y-134369923D01*
X294794000Y-134705876D01*
X294794000Y-135238124D01*
X294897836Y-135760144D01*
X295101519Y-136251877D01*
X295397219Y-136694425D01*
X295773575Y-137070781D01*
X296216123Y-137366481D01*
X296707856Y-137570164D01*
X297229876Y-137674000D01*
X297762124Y-137674000D01*
X298284144Y-137570164D01*
X298662549Y-137413423D01*
X298656681Y-137427590D01*
X298598000Y-137722604D01*
X298598000Y-138023396D01*
X298656681Y-138318410D01*
X298771790Y-138596306D01*
X298938901Y-138846406D01*
X299151594Y-139059099D01*
X299401694Y-139226210D01*
X299679590Y-139341319D01*
X299974604Y-139400000D01*
X300275396Y-139400000D01*
X300570410Y-139341319D01*
X300848306Y-139226210D01*
X301098406Y-139059099D01*
X301311099Y-138846406D01*
X301478210Y-138596306D01*
X301593319Y-138318410D01*
X301652000Y-138023396D01*
X301652000Y-137722604D01*
X301593319Y-137427590D01*
X301478210Y-137149694D01*
X301397704Y-137029208D01*
X301503210Y-136871306D01*
X301618319Y-136593410D01*
X301677000Y-136298396D01*
X301677000Y-135997604D01*
X301618319Y-135702590D01*
X301503210Y-135424694D01*
X301336099Y-135174594D01*
X301123406Y-134961901D01*
X300873306Y-134794790D01*
X300595410Y-134679681D01*
X300300396Y-134621000D01*
X300181117Y-134621000D01*
X300146006Y-134444485D01*
X311497632Y-134604630D01*
X311546790Y-134723306D01*
X311713901Y-134973406D01*
X311926594Y-135186099D01*
X312176694Y-135353210D01*
X312454590Y-135468319D01*
X312749604Y-135527000D01*
X313050396Y-135527000D01*
X313345410Y-135468319D01*
X313623306Y-135353210D01*
X313873406Y-135186099D01*
X314086099Y-134973406D01*
X314253210Y-134723306D01*
X314286073Y-134643968D01*
X332894000Y-134906483D01*
X332894000Y-135238124D01*
X332997836Y-135760144D01*
X333201519Y-136251877D01*
X333497219Y-136694425D01*
X333873575Y-137070781D01*
X334316123Y-137366481D01*
X334807856Y-137570164D01*
X335329876Y-137674000D01*
X335862124Y-137674000D01*
X336384144Y-137570164D01*
X336737548Y-137423779D01*
X336698000Y-137622604D01*
X336698000Y-137923396D01*
X336756681Y-138218410D01*
X336871790Y-138496306D01*
X337038901Y-138746406D01*
X337251594Y-138959099D01*
X337501694Y-139126210D01*
X337779590Y-139241319D01*
X338074604Y-139300000D01*
X338375396Y-139300000D01*
X338670410Y-139241319D01*
X338948306Y-139126210D01*
X339198406Y-138959099D01*
X339411099Y-138746406D01*
X339578210Y-138496306D01*
X339693319Y-138218410D01*
X339752000Y-137923396D01*
X339752000Y-137622604D01*
X339693319Y-137327590D01*
X339578210Y-137049694D01*
X339497704Y-136929208D01*
X339603210Y-136771306D01*
X339718319Y-136493410D01*
X339777000Y-136198396D01*
X339777000Y-135897604D01*
X339718319Y-135602590D01*
X339603210Y-135324694D01*
X339436099Y-135074594D01*
X339359197Y-134997692D01*
X371035064Y-135444565D01*
X371097836Y-135760144D01*
X371301519Y-136251877D01*
X371597219Y-136694425D01*
X371973575Y-137070781D01*
X372416123Y-137366481D01*
X372907856Y-137570164D01*
X373429876Y-137674000D01*
X373962124Y-137674000D01*
X374484144Y-137570164D01*
X374870646Y-137410069D01*
X374823000Y-137649604D01*
X374823000Y-137950396D01*
X374881681Y-138245410D01*
X374996790Y-138523306D01*
X375163901Y-138773406D01*
X375376594Y-138986099D01*
X375626694Y-139153210D01*
X375904590Y-139268319D01*
X376199604Y-139327000D01*
X376500396Y-139327000D01*
X376795410Y-139268319D01*
X377073306Y-139153210D01*
X377323406Y-138986099D01*
X377536099Y-138773406D01*
X377703210Y-138523306D01*
X377818319Y-138245410D01*
X377877000Y-137950396D01*
X377877000Y-137649604D01*
X377818319Y-137354590D01*
X377703210Y-137076694D01*
X377622704Y-136956208D01*
X377728210Y-136798306D01*
X377843319Y-136520410D01*
X377902000Y-136225396D01*
X377902000Y-135924604D01*
X377843319Y-135629590D01*
X377806247Y-135540091D01*
X394598209Y-135776987D01*
X394623017Y-135774897D01*
X394646941Y-135768007D01*
X394669061Y-135756581D01*
X394694398Y-135734959D01*
X400544398Y-129234959D01*
X400559159Y-129214910D01*
X400569725Y-129192367D01*
X400575690Y-129168196D01*
X400577000Y-129149859D01*
X400527000Y-84199859D01*
X400524532Y-84175085D01*
X400517279Y-84151269D01*
X400505518Y-84129325D01*
X400487388Y-84107846D01*
X394687388Y-78607846D01*
X394667730Y-78592568D01*
X394645470Y-78581419D01*
X394621462Y-78574827D01*
X394600275Y-78573000D01*
X387600856Y-78557854D01*
X387354781Y-78189575D01*
X386978425Y-77813219D01*
X386535877Y-77517519D01*
X386044144Y-77313836D01*
X385522124Y-77210000D01*
X384989876Y-77210000D01*
X384467856Y-77313836D01*
X384387903Y-77346954D01*
X384427000Y-77150396D01*
X384427000Y-76849604D01*
X384368319Y-76554590D01*
X384253210Y-76276694D01*
X384086099Y-76026594D01*
X383873406Y-75813901D01*
X383650175Y-75664743D01*
X383618319Y-75504590D01*
X383503210Y-75226694D01*
X383336099Y-74976594D01*
X383123406Y-74763901D01*
X382873306Y-74596790D01*
X382595410Y-74481681D01*
X382300396Y-74423000D01*
X381999604Y-74423000D01*
X381704590Y-74481681D01*
X381426694Y-74596790D01*
X381176594Y-74763901D01*
X380963901Y-74976594D01*
X380796790Y-75226694D01*
X380681681Y-75504590D01*
X380623000Y-75799604D01*
X380623000Y-76100396D01*
X380681681Y-76395410D01*
X380796790Y-76673306D01*
X380963901Y-76923406D01*
X381176594Y-77136099D01*
X381399825Y-77285257D01*
X381431681Y-77445410D01*
X381546790Y-77723306D01*
X381713901Y-77973406D01*
X381926594Y-78186099D01*
X382176694Y-78353210D01*
X382454590Y-78468319D01*
X382749604Y-78527000D01*
X382931760Y-78527000D01*
X382917915Y-78547721D01*
X349445689Y-78475291D01*
X349254781Y-78189575D01*
X348878425Y-77813219D01*
X348435877Y-77517519D01*
X347944144Y-77313836D01*
X347422124Y-77210000D01*
X346889876Y-77210000D01*
X346374593Y-77312496D01*
X346377000Y-77300396D01*
X346377000Y-76999604D01*
X346318319Y-76704590D01*
X346203210Y-76426694D01*
X346036099Y-76176594D01*
X345823406Y-75963901D01*
X345577000Y-75799258D01*
X345577000Y-75649604D01*
X345518319Y-75354590D01*
X345403210Y-75076694D01*
X345236099Y-74826594D01*
X345023406Y-74613901D01*
X344773306Y-74446790D01*
X344495410Y-74331681D01*
X344200396Y-74273000D01*
X343899604Y-74273000D01*
X343604590Y-74331681D01*
X343326694Y-74446790D01*
X343076594Y-74613901D01*
X342863901Y-74826594D01*
X342696790Y-75076694D01*
X342581681Y-75354590D01*
X342523000Y-75649604D01*
X342523000Y-75950396D01*
X342581681Y-76245410D01*
X342696790Y-76523306D01*
X342863901Y-76773406D01*
X343076594Y-76986099D01*
X343323000Y-77150742D01*
X343323000Y-77300396D01*
X343381681Y-77595410D01*
X343496790Y-77873306D01*
X343663901Y-78123406D01*
X343876594Y-78336099D01*
X344067492Y-78463653D01*
X311290522Y-78392727D01*
X311154781Y-78189575D01*
X310778425Y-77813219D01*
X310335877Y-77517519D01*
X309844144Y-77313836D01*
X309322124Y-77210000D01*
X308789876Y-77210000D01*
X308267856Y-77313836D01*
X308149904Y-77362694D01*
X308143319Y-77329590D01*
X308028210Y-77051694D01*
X307861099Y-76801594D01*
X307648406Y-76588901D01*
X307398306Y-76421790D01*
X307344189Y-76399374D01*
X307418319Y-76220410D01*
X307477000Y-75925396D01*
X307477000Y-75624604D01*
X307418319Y-75329590D01*
X307303210Y-75051694D01*
X307136099Y-74801594D01*
X306923406Y-74588901D01*
X306673306Y-74421790D01*
X306395410Y-74306681D01*
X306100396Y-74248000D01*
X305799604Y-74248000D01*
X305504590Y-74306681D01*
X305226694Y-74421790D01*
X304976594Y-74588901D01*
X304763901Y-74801594D01*
X304596790Y-75051694D01*
X304481681Y-75329590D01*
X304423000Y-75624604D01*
X304423000Y-75925396D01*
X304481681Y-76220410D01*
X304596790Y-76498306D01*
X304763901Y-76748406D01*
X304976594Y-76961099D01*
X305226694Y-77128210D01*
X305280811Y-77150626D01*
X305206681Y-77329590D01*
X305148000Y-77624604D01*
X305148000Y-77925396D01*
X305206681Y-78220410D01*
X305272664Y-78379705D01*
X294123818Y-78355580D01*
X293945410Y-78281681D01*
X293650396Y-78223000D01*
X293349604Y-78223000D01*
X293054590Y-78281681D01*
X292882666Y-78352895D01*
X291912264Y-78350795D01*
X291745410Y-78281681D01*
X291450396Y-78223000D01*
X291149604Y-78223000D01*
X290854590Y-78281681D01*
X290694099Y-78348159D01*
X273135355Y-78310164D01*
X273054781Y-78189575D01*
X272678425Y-77813219D01*
X272235877Y-77517519D01*
X271744144Y-77313836D01*
X271222124Y-77210000D01*
X270689876Y-77210000D01*
X270167856Y-77313836D01*
X269676123Y-77517519D01*
X269233575Y-77813219D01*
X268857219Y-78189575D01*
X268782938Y-78300746D01*
X265256259Y-78293114D01*
X265473306Y-78203210D01*
X265723406Y-78036099D01*
X265936099Y-77823406D01*
X266103210Y-77573306D01*
X266218319Y-77295410D01*
X266219871Y-77287608D01*
X266296790Y-77473306D01*
X266463901Y-77723406D01*
X266676594Y-77936099D01*
X266926694Y-78103210D01*
X267204590Y-78218319D01*
X267499604Y-78277000D01*
X267800396Y-78277000D01*
X268095410Y-78218319D01*
X268373306Y-78103210D01*
X268623406Y-77936099D01*
X268836099Y-77723406D01*
X269003210Y-77473306D01*
X269118319Y-77195410D01*
X269177000Y-76900396D01*
X269177000Y-76599604D01*
X269118319Y-76304590D01*
X269018930Y-76064645D01*
X269068319Y-75945410D01*
X269127000Y-75650396D01*
X269127000Y-75349604D01*
X269068319Y-75054590D01*
X268953210Y-74776694D01*
X268786099Y-74526594D01*
X268573406Y-74313901D01*
X268323306Y-74146790D01*
X268045410Y-74031681D01*
X267750396Y-73973000D01*
X267449604Y-73973000D01*
X267154590Y-74031681D01*
X266876694Y-74146790D01*
X266626594Y-74313901D01*
X266413901Y-74526594D01*
X266246790Y-74776694D01*
X266131681Y-75054590D01*
X266073000Y-75349604D01*
X266073000Y-75650396D01*
X266131681Y-75945410D01*
X266231070Y-76185355D01*
X266181681Y-76304590D01*
X266180129Y-76312392D01*
X266103210Y-76126694D01*
X265936099Y-75876594D01*
X265723406Y-75663901D01*
X265473306Y-75496790D01*
X265195410Y-75381681D01*
X264900396Y-75323000D01*
X264599604Y-75323000D01*
X264304590Y-75381681D01*
X264026694Y-75496790D01*
X263776594Y-75663901D01*
X263563901Y-75876594D01*
X263396790Y-76126694D01*
X263281681Y-76404590D01*
X263223000Y-76699604D01*
X263223000Y-77000396D01*
X263281681Y-77295410D01*
X263396790Y-77573306D01*
X263563901Y-77823406D01*
X263776594Y-78036099D01*
X264026694Y-78203210D01*
X264238423Y-78290912D01*
X234980189Y-78227600D01*
X234954781Y-78189575D01*
X234578425Y-77813219D01*
X234135877Y-77517519D01*
X233644144Y-77313836D01*
X233122124Y-77210000D01*
X232589876Y-77210000D01*
X232067856Y-77313836D01*
X231576123Y-77517519D01*
X231133575Y-77813219D01*
X230757219Y-78189575D01*
X230737945Y-78218420D01*
X228418759Y-78213402D01*
X228645410Y-78168319D01*
X228923306Y-78053210D01*
X229173406Y-77886099D01*
X229386099Y-77673406D01*
X229553210Y-77423306D01*
X229597402Y-77316617D01*
X229649604Y-77327000D01*
X229950396Y-77327000D01*
X230245410Y-77268319D01*
X230523306Y-77153210D01*
X230773406Y-76986099D01*
X230986099Y-76773406D01*
X231153210Y-76523306D01*
X231268319Y-76245410D01*
X231327000Y-75950396D01*
X231327000Y-75649604D01*
X231268319Y-75354590D01*
X231153210Y-75076694D01*
X230986099Y-74826594D01*
X230773406Y-74613901D01*
X230523306Y-74446790D01*
X230245410Y-74331681D01*
X229950396Y-74273000D01*
X229649604Y-74273000D01*
X229354590Y-74331681D01*
X229076694Y-74446790D01*
X228826594Y-74613901D01*
X228613901Y-74826594D01*
X228446790Y-75076694D01*
X228402598Y-75183383D01*
X228350396Y-75173000D01*
X228049604Y-75173000D01*
X227754590Y-75231681D01*
X227476694Y-75346790D01*
X227226594Y-75513901D01*
X227013901Y-75726594D01*
X226846790Y-75976694D01*
X226731681Y-76254590D01*
X226673000Y-76549604D01*
X226673000Y-76850396D01*
X226731681Y-77145410D01*
X226846790Y-77423306D01*
X227013901Y-77673406D01*
X227226594Y-77886099D01*
X227476694Y-78053210D01*
X227754590Y-78168319D01*
X227976429Y-78212445D01*
X196810211Y-78145005D01*
X196478425Y-77813219D01*
X196035877Y-77517519D01*
X195544144Y-77313836D01*
X195022124Y-77210000D01*
X194489876Y-77210000D01*
X193967856Y-77313836D01*
X193476123Y-77517519D01*
X193406788Y-77563847D01*
X193464475Y-77424578D01*
X193527000Y-77110245D01*
X193527000Y-76789755D01*
X193464475Y-76475422D01*
X193341828Y-76179327D01*
X193318513Y-76144434D01*
X193377000Y-75850396D01*
X193377000Y-75549604D01*
X193318319Y-75254590D01*
X193203210Y-74976694D01*
X193036099Y-74726594D01*
X192823406Y-74513901D01*
X192573306Y-74346790D01*
X192295410Y-74231681D01*
X192000396Y-74173000D01*
X191699604Y-74173000D01*
X191404590Y-74231681D01*
X191126694Y-74346790D01*
X190876594Y-74513901D01*
X190663901Y-74726594D01*
X190496790Y-74976694D01*
X190381681Y-75254590D01*
X190323000Y-75549604D01*
X190323000Y-75850396D01*
X190381681Y-76145410D01*
X190426951Y-76254701D01*
X190335525Y-76475422D01*
X190273000Y-76789755D01*
X190273000Y-77110245D01*
X190335525Y-77424578D01*
X190458172Y-77720673D01*
X190636227Y-77987152D01*
X190781033Y-78131958D01*
X186459062Y-78122606D01*
X186434280Y-78124993D01*
X186410440Y-78132168D01*
X186388458Y-78143857D01*
X186371954Y-78156929D01*
X176665680Y-87251134D01*
X176626123Y-87267519D01*
X176183575Y-87563219D01*
X175807219Y-87939575D01*
X175600158Y-88249465D01*
X175138167Y-88682323D01*
X175121755Y-88701044D01*
X175109311Y-88722607D01*
X175101312Y-88746184D01*
X175098067Y-88770868D01*
X169836485Y-88770868D01*
X169744904Y-84271961D01*
X169873406Y-84186099D01*
X170086099Y-83973406D01*
X170253210Y-83723306D01*
X170368319Y-83445410D01*
X170427000Y-83150396D01*
X170427000Y-82849604D01*
X170368319Y-82554590D01*
X170253210Y-82276694D01*
X170086099Y-82026594D01*
X169873406Y-81813901D01*
X169692405Y-81692960D01*
X169639615Y-79099604D01*
X176573000Y-79099604D01*
X176573000Y-79400396D01*
X176631681Y-79695410D01*
X176746790Y-79973306D01*
X176913901Y-80223406D01*
X177126594Y-80436099D01*
X177376694Y-80603210D01*
X177654590Y-80718319D01*
X177949604Y-80777000D01*
X178250396Y-80777000D01*
X178545410Y-80718319D01*
X178823306Y-80603210D01*
X179073406Y-80436099D01*
X179286099Y-80223406D01*
X179453210Y-79973306D01*
X179568319Y-79695410D01*
X179627000Y-79400396D01*
X179627000Y-79099604D01*
X179568319Y-78804590D01*
X179453210Y-78526694D01*
X179286099Y-78276594D01*
X179073406Y-78063901D01*
X178823306Y-77896790D01*
X178545410Y-77781681D01*
X178250396Y-77723000D01*
X177949604Y-77723000D01*
X177654590Y-77781681D01*
X177376694Y-77896790D01*
X177126594Y-78063901D01*
X176913901Y-78276594D01*
X176746790Y-78526694D01*
X176631681Y-78804590D01*
X176573000Y-79099604D01*
X169639615Y-79099604D01*
X169510353Y-72749604D01*
X182423000Y-72749604D01*
X182423000Y-73050396D01*
X182481681Y-73345410D01*
X182596790Y-73623306D01*
X182763901Y-73873406D01*
X182976594Y-74086099D01*
X183226694Y-74253210D01*
X183504590Y-74368319D01*
X183799604Y-74427000D01*
X184100396Y-74427000D01*
X184395410Y-74368319D01*
X184673306Y-74253210D01*
X184923406Y-74086099D01*
X185136099Y-73873406D01*
X185303210Y-73623306D01*
X185418319Y-73345410D01*
X185477000Y-73050396D01*
X185477000Y-72749604D01*
X185418319Y-72454590D01*
X185303210Y-72176694D01*
X185174379Y-71983884D01*
X185276594Y-72086099D01*
X185526694Y-72253210D01*
X185804590Y-72368319D01*
X186099604Y-72427000D01*
X186400396Y-72427000D01*
X186695410Y-72368319D01*
X186973306Y-72253210D01*
X187223406Y-72086099D01*
X187436099Y-71873406D01*
X187603210Y-71623306D01*
X187718319Y-71345410D01*
X187747321Y-71199604D01*
X218773000Y-71199604D01*
X218773000Y-71500396D01*
X218831681Y-71795410D01*
X218946790Y-72073306D01*
X219113901Y-72323406D01*
X219326594Y-72536099D01*
X219576694Y-72703210D01*
X219854590Y-72818319D01*
X220149604Y-72877000D01*
X220450396Y-72877000D01*
X220633254Y-72840628D01*
X220646790Y-72873306D01*
X220813901Y-73123406D01*
X221026594Y-73336099D01*
X221276694Y-73503210D01*
X221554590Y-73618319D01*
X221849604Y-73677000D01*
X222150396Y-73677000D01*
X222445410Y-73618319D01*
X222723306Y-73503210D01*
X222973406Y-73336099D01*
X223186099Y-73123406D01*
X223235411Y-73049604D01*
X258523000Y-73049604D01*
X258523000Y-73350396D01*
X258581681Y-73645410D01*
X258696790Y-73923306D01*
X258863901Y-74173406D01*
X259076594Y-74386099D01*
X259326694Y-74553210D01*
X259604590Y-74668319D01*
X259899604Y-74727000D01*
X260200396Y-74727000D01*
X260495410Y-74668319D01*
X260773306Y-74553210D01*
X261023406Y-74386099D01*
X261236099Y-74173406D01*
X261403210Y-73923306D01*
X261518319Y-73645410D01*
X261577000Y-73350396D01*
X261577000Y-73049604D01*
X261518319Y-72754590D01*
X261506891Y-72727000D01*
X261700396Y-72727000D01*
X261995410Y-72668319D01*
X262273306Y-72553210D01*
X262523406Y-72386099D01*
X262736099Y-72173406D01*
X262903210Y-71923306D01*
X263018319Y-71645410D01*
X263067212Y-71399604D01*
X296723000Y-71399604D01*
X296723000Y-71700396D01*
X296781681Y-71995410D01*
X296896790Y-72273306D01*
X297063901Y-72523406D01*
X297276594Y-72736099D01*
X297526694Y-72903210D01*
X297804590Y-73018319D01*
X298099604Y-73077000D01*
X298400396Y-73077000D01*
X298695410Y-73018319D01*
X298973306Y-72903210D01*
X299223406Y-72736099D01*
X299436099Y-72523406D01*
X299603210Y-72273306D01*
X299718319Y-71995410D01*
X299777000Y-71700396D01*
X299777000Y-71399604D01*
X333723000Y-71399604D01*
X333723000Y-71700396D01*
X333781681Y-71995410D01*
X333896790Y-72273306D01*
X334063901Y-72523406D01*
X334276594Y-72736099D01*
X334526694Y-72903210D01*
X334804590Y-73018319D01*
X335099604Y-73077000D01*
X335400396Y-73077000D01*
X335695410Y-73018319D01*
X335973306Y-72903210D01*
X336223406Y-72736099D01*
X336436099Y-72523406D01*
X336603210Y-72273306D01*
X336718319Y-71995410D01*
X336777000Y-71700396D01*
X336777000Y-71549604D01*
X372123000Y-71549604D01*
X372123000Y-71850396D01*
X372181681Y-72145410D01*
X372296790Y-72423306D01*
X372463901Y-72673406D01*
X372676594Y-72886099D01*
X372926694Y-73053210D01*
X373204590Y-73168319D01*
X373499604Y-73227000D01*
X373800396Y-73227000D01*
X374095410Y-73168319D01*
X374373306Y-73053210D01*
X374623406Y-72886099D01*
X374836099Y-72673406D01*
X375003210Y-72423306D01*
X375118319Y-72145410D01*
X375177000Y-71850396D01*
X375177000Y-71549604D01*
X375118319Y-71254590D01*
X375003210Y-70976694D01*
X374836099Y-70726594D01*
X374623406Y-70513901D01*
X374373306Y-70346790D01*
X374095410Y-70231681D01*
X373800396Y-70173000D01*
X373499604Y-70173000D01*
X373204590Y-70231681D01*
X372926694Y-70346790D01*
X372676594Y-70513901D01*
X372463901Y-70726594D01*
X372296790Y-70976694D01*
X372181681Y-71254590D01*
X372123000Y-71549604D01*
X336777000Y-71549604D01*
X336777000Y-71399604D01*
X336718319Y-71104590D01*
X336603210Y-70826694D01*
X336436099Y-70576594D01*
X336223406Y-70363901D01*
X335973306Y-70196790D01*
X335695410Y-70081681D01*
X335400396Y-70023000D01*
X335099604Y-70023000D01*
X334804590Y-70081681D01*
X334526694Y-70196790D01*
X334276594Y-70363901D01*
X334063901Y-70576594D01*
X333896790Y-70826694D01*
X333781681Y-71104590D01*
X333723000Y-71399604D01*
X299777000Y-71399604D01*
X299718319Y-71104590D01*
X299603210Y-70826694D01*
X299436099Y-70576594D01*
X299223406Y-70363901D01*
X298973306Y-70196790D01*
X298695410Y-70081681D01*
X298400396Y-70023000D01*
X298099604Y-70023000D01*
X297804590Y-70081681D01*
X297526694Y-70196790D01*
X297276594Y-70363901D01*
X297063901Y-70576594D01*
X296896790Y-70826694D01*
X296781681Y-71104590D01*
X296723000Y-71399604D01*
X263067212Y-71399604D01*
X263077000Y-71350396D01*
X263077000Y-71049604D01*
X263018319Y-70754590D01*
X262903210Y-70476694D01*
X262736099Y-70226594D01*
X262523406Y-70013901D01*
X262273306Y-69846790D01*
X261995410Y-69731681D01*
X261700396Y-69673000D01*
X261399604Y-69673000D01*
X261104590Y-69731681D01*
X260826694Y-69846790D01*
X260576594Y-70013901D01*
X260363901Y-70226594D01*
X260196790Y-70476694D01*
X260081681Y-70754590D01*
X260023000Y-71049604D01*
X260023000Y-71350396D01*
X260081681Y-71645410D01*
X260093109Y-71673000D01*
X259899604Y-71673000D01*
X259604590Y-71731681D01*
X259326694Y-71846790D01*
X259076594Y-72013901D01*
X258863901Y-72226594D01*
X258696790Y-72476694D01*
X258581681Y-72754590D01*
X258523000Y-73049604D01*
X223235411Y-73049604D01*
X223353210Y-72873306D01*
X223468319Y-72595410D01*
X223527000Y-72300396D01*
X223527000Y-71999604D01*
X223468319Y-71704590D01*
X223353210Y-71426694D01*
X223186099Y-71176594D01*
X222973406Y-70963901D01*
X222723306Y-70796790D01*
X222445410Y-70681681D01*
X222150396Y-70623000D01*
X221849604Y-70623000D01*
X221666746Y-70659372D01*
X221653210Y-70626694D01*
X221486099Y-70376594D01*
X221273406Y-70163901D01*
X221023306Y-69996790D01*
X220745410Y-69881681D01*
X220450396Y-69823000D01*
X220149604Y-69823000D01*
X219854590Y-69881681D01*
X219576694Y-69996790D01*
X219326594Y-70163901D01*
X219113901Y-70376594D01*
X218946790Y-70626694D01*
X218831681Y-70904590D01*
X218773000Y-71199604D01*
X187747321Y-71199604D01*
X187777000Y-71050396D01*
X187777000Y-70749604D01*
X187718319Y-70454590D01*
X187603210Y-70176694D01*
X187436099Y-69926594D01*
X187223406Y-69713901D01*
X186973306Y-69546790D01*
X186695410Y-69431681D01*
X186400396Y-69373000D01*
X186099604Y-69373000D01*
X185804590Y-69431681D01*
X185526694Y-69546790D01*
X185276594Y-69713901D01*
X185063901Y-69926594D01*
X184896790Y-70176694D01*
X184781681Y-70454590D01*
X184723000Y-70749604D01*
X184723000Y-71050396D01*
X184781681Y-71345410D01*
X184896790Y-71623306D01*
X185025621Y-71816116D01*
X184923406Y-71713901D01*
X184673306Y-71546790D01*
X184395410Y-71431681D01*
X184100396Y-71373000D01*
X183799604Y-71373000D01*
X183504590Y-71431681D01*
X183226694Y-71546790D01*
X182976594Y-71713901D01*
X182763901Y-71926594D01*
X182596790Y-72176694D01*
X182481681Y-72454590D01*
X182423000Y-72749604D01*
X169510353Y-72749604D01*
X169475747Y-71049604D01*
X173073000Y-71049604D01*
X173073000Y-71350396D01*
X173131681Y-71645410D01*
X173246790Y-71923306D01*
X173413901Y-72173406D01*
X173626594Y-72386099D01*
X173876694Y-72553210D01*
X174154590Y-72668319D01*
X174449604Y-72727000D01*
X174750396Y-72727000D01*
X175045410Y-72668319D01*
X175323306Y-72553210D01*
X175573406Y-72386099D01*
X175786099Y-72173406D01*
X175953210Y-71923306D01*
X176068319Y-71645410D01*
X176127000Y-71350396D01*
X176127000Y-71049604D01*
X176068319Y-70754590D01*
X175953210Y-70476694D01*
X175786099Y-70226594D01*
X175573406Y-70013901D01*
X175323306Y-69846790D01*
X175045410Y-69731681D01*
X174750396Y-69673000D01*
X174449604Y-69673000D01*
X174154590Y-69731681D01*
X173876694Y-69846790D01*
X173626594Y-70013901D01*
X173413901Y-70226594D01*
X173246790Y-70476694D01*
X173131681Y-70754590D01*
X173073000Y-71049604D01*
X169475747Y-71049604D01*
X169376974Y-66197415D01*
X169376951Y-66196474D01*
X169329188Y-64477000D01*
X404123157Y-64477000D01*
X404222842Y-144872891D01*
G37*
%TD.AperFunction*%
%TD*%
M02*
