%TF.GenerationSoftware,KiCad,Pcbnew,(5.1.7)-1*%
%TF.CreationDate,2021-03-15T08:37:38+01:00*%
%TF.ProjectId,SuperCap Small,53757065-7243-4617-9020-536d616c6c2e,rev?*%
%TF.SameCoordinates,Original*%
%TF.FileFunction,Soldermask,Bot*%
%TF.FilePolarity,Negative*%
%FSLAX46Y46*%
G04 Gerber Fmt 4.6, Leading zero omitted, Abs format (unit mm)*
G04 Created by KiCad (PCBNEW (5.1.7)-1) date 2021-03-15 08:37:38*
%MOMM*%
%LPD*%
G01*
G04 APERTURE LIST*
%ADD10C,3.150000*%
%ADD11C,2.025000*%
%ADD12R,2.025000X2.025000*%
%ADD13O,9.000000X6.000000*%
%ADD14R,1.500000X1.500000*%
%ADD15C,1.500000*%
%ADD16C,0.800000*%
%ADD17C,2.200000*%
%ADD18R,2.200000X2.200000*%
%ADD19C,1.605000*%
%ADD20C,1.230000*%
G04 APERTURE END LIST*
D10*
%TO.C,C28*%
X276246000Y-125222000D03*
X259396000Y-134972000D03*
X259396000Y-115472000D03*
X253746000Y-125222000D03*
%TD*%
%TO.C,C34*%
X390546000Y-125222000D03*
X373696000Y-134972000D03*
X373696000Y-115472000D03*
X368046000Y-125222000D03*
%TD*%
%TO.C,C25*%
X177906000Y-89662000D03*
X194756000Y-79912000D03*
X194756000Y-99412000D03*
X200406000Y-89662000D03*
%TD*%
%TO.C,C33*%
X330306000Y-89662000D03*
X347156000Y-79912000D03*
X347156000Y-99412000D03*
X352806000Y-89662000D03*
%TD*%
%TO.C,C32*%
X352446000Y-125222000D03*
X335596000Y-134972000D03*
X335596000Y-115472000D03*
X329946000Y-125222000D03*
%TD*%
%TO.C,C31*%
X292206000Y-89662000D03*
X309056000Y-79912000D03*
X309056000Y-99412000D03*
X314706000Y-89662000D03*
%TD*%
%TO.C,C27*%
X216006000Y-89662000D03*
X232856000Y-79912000D03*
X232856000Y-99412000D03*
X238506000Y-89662000D03*
%TD*%
%TO.C,C24*%
X200046000Y-125422000D03*
X183196000Y-135172000D03*
X183196000Y-115672000D03*
X177546000Y-125422000D03*
%TD*%
D11*
%TO.C,J1*%
X223750000Y-181000000D03*
X227560000Y-181000000D03*
X231370000Y-181000000D03*
X235180000Y-181000000D03*
X238990000Y-181000000D03*
D12*
X242800000Y-181000000D03*
%TD*%
D10*
%TO.C,C30*%
X314346000Y-125222000D03*
X297496000Y-134972000D03*
X297496000Y-115472000D03*
X291846000Y-125222000D03*
%TD*%
D13*
%TO.C,U1*%
X158360000Y-152400000D03*
X148360000Y-152400000D03*
D14*
X155270000Y-173800000D03*
D15*
X151450000Y-173800000D03*
X153360000Y-173800000D03*
G36*
G01*
X154579047Y-151407477D02*
X154579047Y-151407477D01*
G75*
G02*
X154772523Y-151939047I-169047J-362523D01*
G01*
X154772523Y-151939047D01*
G75*
G02*
X154240953Y-152132523I-362523J169047D01*
G01*
X154240953Y-152132523D01*
G75*
G02*
X154047477Y-151600953I169047J362523D01*
G01*
X154047477Y-151600953D01*
G75*
G02*
X154579047Y-151407477I362523J-169047D01*
G01*
G37*
G36*
G01*
X154579047Y-153392523D02*
X154579047Y-153392523D01*
G75*
G02*
X154047477Y-153199047I-169047J362523D01*
G01*
X154047477Y-153199047D01*
G75*
G02*
X154240953Y-152667477I362523J169047D01*
G01*
X154240953Y-152667477D01*
G75*
G02*
X154772523Y-152860953I169047J-362523D01*
G01*
X154772523Y-152860953D01*
G75*
G02*
X154579047Y-153392523I-362523J-169047D01*
G01*
G37*
D16*
X155160000Y-154060000D03*
X155160000Y-150740000D03*
X162310000Y-151770000D03*
X162310000Y-153030000D03*
X161560000Y-154060000D03*
X161560000Y-150740000D03*
X157690000Y-154450000D03*
X159030000Y-154450000D03*
X156360000Y-154450000D03*
X160360000Y-154450000D03*
X157690000Y-150350000D03*
X159030000Y-150350000D03*
X160360000Y-150350000D03*
X156360000Y-150350000D03*
X151560000Y-154060000D03*
X151560000Y-150740000D03*
G36*
G01*
X152479047Y-152667477D02*
X152479047Y-152667477D01*
G75*
G02*
X152672523Y-153199047I-169047J-362523D01*
G01*
X152672523Y-153199047D01*
G75*
G02*
X152140953Y-153392523I-362523J169047D01*
G01*
X152140953Y-153392523D01*
G75*
G02*
X151947477Y-152860953I169047J362523D01*
G01*
X151947477Y-152860953D01*
G75*
G02*
X152479047Y-152667477I362523J-169047D01*
G01*
G37*
G36*
G01*
X152479047Y-152132523D02*
X152479047Y-152132523D01*
G75*
G02*
X151947477Y-151939047I-169047J362523D01*
G01*
X151947477Y-151939047D01*
G75*
G02*
X152140953Y-151407477I362523J169047D01*
G01*
X152140953Y-151407477D01*
G75*
G02*
X152672523Y-151600953I169047J-362523D01*
G01*
X152672523Y-151600953D01*
G75*
G02*
X152479047Y-152132523I-362523J-169047D01*
G01*
G37*
X145160000Y-154060000D03*
X145160000Y-150740000D03*
X144410000Y-151770000D03*
X146360000Y-154450000D03*
X147690000Y-154450000D03*
X149030000Y-154450000D03*
X150360000Y-154450000D03*
X146360000Y-150350000D03*
X147690000Y-150350000D03*
X149030000Y-150350000D03*
X150360000Y-150350000D03*
X144410000Y-153030000D03*
%TD*%
D10*
%TO.C,C26*%
X238146000Y-125222000D03*
X221296000Y-134972000D03*
X221296000Y-115472000D03*
X215646000Y-125222000D03*
%TD*%
%TO.C,C29*%
X254106000Y-89662000D03*
X270956000Y-79912000D03*
X270956000Y-99412000D03*
X276606000Y-89662000D03*
%TD*%
%TO.C,C35*%
X368406000Y-89662000D03*
X385256000Y-79912000D03*
X385256000Y-99412000D03*
X390906000Y-89662000D03*
%TD*%
D17*
%TO.C,J4*%
X122240000Y-145640000D03*
X119800000Y-145640000D03*
X117360000Y-145640000D03*
X122240000Y-138020000D03*
X119800000Y-138020000D03*
X117360000Y-138020000D03*
X122240000Y-130400000D03*
X119800000Y-130400000D03*
D18*
X117360000Y-130400000D03*
%TD*%
%TO.C,J3*%
X117360000Y-87900000D03*
D17*
X119800000Y-87900000D03*
X122240000Y-87900000D03*
X117360000Y-95520000D03*
X119800000Y-95520000D03*
X122240000Y-95520000D03*
X117360000Y-103140000D03*
X119800000Y-103140000D03*
X122240000Y-103140000D03*
%TD*%
D19*
%TO.C,J2*%
X338565000Y-169725000D03*
X336025000Y-169725000D03*
X333485000Y-169725000D03*
X330945000Y-169725000D03*
X328405000Y-169725000D03*
X325865000Y-169725000D03*
X338565000Y-172265000D03*
X336025000Y-172265000D03*
X333485000Y-172265000D03*
X330945000Y-172265000D03*
X328405000Y-172265000D03*
X325865000Y-172265000D03*
D20*
X342025000Y-169725000D03*
X322305000Y-169725000D03*
%TD*%
M02*
