M48
; DRILL file {KiCad (5.1.7)-1} date 03/15/21 08:37:33
; FORMAT={-:-/ absolute / metric / decimal}
; #@! TF.CreationDate,2021-03-15T08:37:33+01:00
; #@! TF.GenerationSoftware,Kicad,Pcbnew,(5.1.7)-1
FMAT,2
METRIC
T1C0.400
T2C0.500
T3C0.600
T4C0.800
T5C1.070
T6C1.350
T7C1.700
T8C2.000
T9C2.100
T10C2.460
%
G90
G05
T1
X149.3Y-76.6
X151.55Y-79.2
X152.65Y-177.4
X152.9Y-81.85
X153.3Y-76.7
X153.36Y-175.9
X154.6Y-81.2
X155.05Y-89.05
X155.6Y-175.7
X155.65Y-85.55
X156.8Y-178.5
X157.45Y-82.05
X158.1Y-76.7
X158.75Y-85.55
X159.9Y-93.55
X160.05Y-96.15
X160.4Y-177.2
X162.4Y-85.55
X162.4Y-93.55
X162.9Y-77.0
X164.45Y-91.95
X165.0Y-78.8
X167.6Y-91.95
X167.8Y-81.6
X168.9Y-83.0
X170.2Y-174.05
X170.3Y-176.0
X170.5Y-172.25
X171.4Y-171.7
X171.55Y-170.05
X172.775Y-146.3
X172.775Y-148.65
X173.2Y-78.8
X174.0Y-144.65
X174.35Y-149.55
X174.6Y-71.2
X178.1Y-79.25
X180.5Y-86.6
X180.6Y-175.8
X182.118Y-86.36
X182.25Y-158.1
X182.55Y-171.75
X182.626Y-83.8
X182.626Y-85.05
X182.95Y-173.35
X183.15Y-143.4
X183.225Y-175.625
X183.95Y-72.9
X184.85Y-131.675
X184.85Y-167.0
X185.2Y-156.95
X185.7Y-137.575
X186.25Y-70.9
X186.5Y-168.45
X186.85Y-156.95
X186.9Y-167.1
X187.075Y-116.65
X187.8Y-154.8
X188.65Y-158.15
X190.45Y-96.9
X190.5Y-119.75
X191.2Y-166.9
X191.85Y-75.7
X192.625Y-119.725
X193.05Y-159.6
X194.95Y-82.95
X196.3Y-169.95
X196.4Y-141.0
X197.05Y-176.0
X197.7Y-82.3
X198.15Y-167.95
X198.8Y-109.75
X199.5Y-108.0
X199.875Y-175.325
X201.2Y-107.7
X201.45Y-152.5
X202.05Y-159.15
X202.3Y-175.35
X202.7Y-154.75
X203.35Y-158.925
X203.775Y-137.023
X203.85Y-151.9
X204.0Y-175.0
X204.1Y-172.9
X204.2Y-170.4
X204.6Y-154.5
X205.55Y-167.85
X206.527Y-145.973
X207.65Y-167.85
X211.1Y-81.7
X212.125Y-155.425
X212.15Y-76.6
X212.575Y-157.8
X213.975Y-152.95
X214.177Y-119.435
X214.95Y-150.45
X215.3Y-166.9
X216.05Y-81.75
X216.3Y-80.05
X216.925Y-175.875
X217.65Y-150.6
X218.36Y-169.4
X219.45Y-154.3
X219.5Y-177.6
X220.2Y-172.55
X220.3Y-71.35
X220.3Y-170.35
X220.35Y-175.3
X220.5Y-151.7
X220.8Y-156.5
X220.85Y-83.5
X220.85Y-158.0
X221.25Y-154.1
X222.0Y-72.15
X222.25Y-176.0
X222.7Y-93.5
X222.8Y-172.8
X223.05Y-170.7
X223.15Y-168.45
X223.975Y-137.798
X224.0Y-136.073
X224.25Y-176.75
X224.95Y-88.35
X225.175Y-116.325
X225.25Y-167.7
X227.15Y-168.25
X227.4Y-176.4
X227.8Y-171.1
X228.2Y-76.7
X228.25Y-96.7
X228.25Y-173.4
X228.25Y-175.0
X229.8Y-75.8
X231.25Y-141.7
X231.3Y-167.7
X231.4Y-139.9
X232.9Y-169.5
X235.7Y-169.4
X236.55Y-173.3
X236.6Y-175.3
X237.75Y-169.25
X238.3Y-173.65
X238.35Y-175.15
X239.25Y-133.35
X239.36Y-149.4
X239.55Y-169.15
X242.7Y-165.5
X243.125Y-136.573
X244.35Y-154.5
X245.3Y-173.15
X246.7Y-181.25
X246.85Y-173.55
X246.86Y-154.4
X246.9Y-175.25
X247.6Y-165.35
X247.9Y-169.6
X248.15Y-180.2
X248.6Y-181.5
X249.0Y-75.85
X249.9Y-147.55
X249.9Y-149.5
X250.05Y-155.75
X250.45Y-165.35
X250.8Y-159.8
X252.05Y-155.75
X252.1Y-169.7
X252.25Y-159.85
X252.86Y-153.4
X253.75Y-178.3
X253.8Y-176.5
X254.2Y-151.125
X254.65Y-152.25
X255.2Y-176.95
X255.25Y-178.5
X256.25Y-159.55
X256.6Y-180.25
X259.36Y-151.4
X259.36Y-153.4
X259.36Y-155.4
X260.05Y-73.2
X260.9Y-169.7
X261.2Y-93.0
X261.55Y-71.2
X262.05Y-137.748
X262.075Y-136.023
X262.2Y-174.6
X262.4Y-177.3
X263.15Y-92.25
X263.25Y-116.175
X264.75Y-76.85
X266.15Y-149.1
X266.3Y-151.55
X266.45Y-96.85
X267.6Y-75.5
X267.65Y-76.75
X267.8Y-181.65
X269.5Y-139.8
X269.9Y-175.775
X271.0Y-158.675
X271.36Y-169.4
X271.4Y-141.75
X271.75Y-174.8
X272.35Y-181.45
X273.36Y-165.4
X273.5Y-159.2
X273.75Y-177.4
X274.512Y-155.487
X274.56Y-167.4
X274.8Y-154.15
X275.1Y-133.6
X275.1Y-152.95
X275.35Y-151.95
X275.35Y-178.55
X275.55Y-150.9
X275.9Y-149.9
X277.15Y-179.6
X280.0Y-157.7
X280.7Y-165.6
X281.3Y-136.673
X282.4Y-174.6
X283.7Y-155.4
X283.95Y-176.45
X284.0Y-159.4
X284.55Y-167.575
X286.2Y-170.65
X287.15Y-175.1
X287.275Y-76.4
X287.3Y-173.0
X287.525Y-167.2
X287.9Y-165.625
X288.25Y-170.7
X288.3Y-159.4
X289.46Y-172.95
X289.6Y-81.7
X290.15Y-170.15
X290.677Y-119.435
X291.1Y-81.3
X291.3Y-79.75
X292.26Y-179.95
X292.45Y-81.55
X293.5Y-79.75
X293.5Y-147.1
X293.7Y-148.2
X293.85Y-149.5
X294.2Y-150.5
X294.4Y-151.85
X294.7Y-157.7
X294.75Y-152.975
X295.3Y-165.7
X296.06Y-179.95
X297.0Y-83.45
X298.25Y-71.55
X298.5Y-155.7
X298.7Y-159.4
X298.925Y-168.05
X299.96Y-177.95
X300.125Y-137.873
X300.15Y-136.148
X300.225Y-171.25
X300.85Y-168.1
X301.1Y-92.2
X301.2Y-93.8
X301.325Y-116.325
X301.5Y-171.25
X301.7Y-165.875
X304.725Y-95.275
X305.95Y-75.775
X306.675Y-77.775
X307.35Y-140.4
X309.45Y-141.45
X312.9Y-134.0
X318.5Y-172.7
X318.55Y-171.1
X319.425Y-136.648
X321.625Y-172.275
X323.65Y-172.2
X324.7Y-76.3
X327.05Y-81.6
X330.15Y-80.95
X330.85Y-81.9
X331.65Y-179.45
X333.15Y-167.2
X333.45Y-177.8
X334.7Y-175.4
X335.25Y-71.55
X335.3Y-166.5
X335.625Y-146.85
X335.9Y-177.6
X336.55Y-95.7
X337.4Y-166.4
X338.0Y-93.55
X338.225Y-137.773
X338.25Y-136.048
X338.3Y-180.15
X339.05Y-92.2
X339.25Y-157.35
X339.35Y-88.5
X339.425Y-116.275
X341.3Y-172.4
X341.4Y-174.45
X341.7Y-157.5
X341.8Y-182.4
X342.95Y-95.4
X343.25Y-148.0
X343.3Y-176.05
X343.35Y-173.35
X344.05Y-75.8
X344.1Y-157.5
X344.85Y-77.15
X344.85Y-170.85
X345.4Y-140.0
X346.1Y-147.95
X346.1Y-173.05
X346.45Y-157.5
X348.75Y-157.4
X348.95Y-148.0
X350.4Y-133.55
X351.25Y-157.3
X351.65Y-148.1
X353.65Y-148.1
X354.15Y-157.25
X355.6Y-139.75
X355.65Y-138.15
X356.85Y-157.3
X357.475Y-136.398
X358.15Y-149.9
X359.5Y-157.4
X359.95Y-175.4
X361.15Y-157.35
X362.0Y-176.05
X362.25Y-174.2
X362.45Y-172.25
X362.65Y-170.85
X363.15Y-76.375
X363.65Y-157.4
X363.75Y-167.35
X363.825Y-169.3
X365.35Y-81.2
X365.6Y-149.45
X366.825Y-119.075
X367.1Y-150.55
X367.55Y-80.6
X368.55Y-149.45
X368.85Y-81.75
X369.31Y-151.4
X369.31Y-174.4
X370.85Y-149.9
X371.2Y-177.4
X371.3Y-178.65
X371.35Y-180.5
X373.65Y-71.7
X373.85Y-95.95
X374.31Y-149.9
X375.05Y-131.65
X375.31Y-157.45
X375.31Y-167.4
X375.35Y-94.55
X375.81Y-154.9
X375.81Y-171.4
X375.81Y-174.9
X376.35Y-137.8
X376.375Y-136.075
X376.4Y-92.75
X377.45Y-88.45
X377.525Y-116.3
X381.0Y-95.7
X382.15Y-75.95
X382.9Y-77.0
X383.4Y-140.4
X385.75Y-141.1
X393.5Y-134.8
T2
X181.55Y-95.8
X181.975Y-153.125
X182.9Y-88.2
X184.95Y-93.15
X184.993Y-123.998
X185.0Y-95.4
X190.7Y-124.6
X191.9Y-76.95
X192.532Y-89.154
X198.8Y-133.15
X199.725Y-155.1
X208.7Y-97.5
X210.25Y-97.5
X215.9Y-154.45
X223.093Y-123.748
X224.75Y-92.05
X228.75Y-124.45
X229.1Y-119.65
X230.356Y-89.094
X231.4Y-119.7
X237.35Y-132.95
X252.75Y-81.6
X254.0Y-147.45
X254.2Y-169.7
X254.45Y-81.8
X257.9Y-147.2
X258.16Y-156.6
X261.55Y-123.1
X262.525Y-94.4
X263.15Y-88.575
X266.36Y-169.4
X266.9Y-124.3
X267.2Y-119.25
X268.557Y-89.25
X269.3Y-119.3
X271.2Y-154.3
X271.25Y-155.95
X277.15Y-133.05
X283.36Y-98.4
X287.86Y-98.4
X299.45Y-122.95
X299.525Y-93.225
X301.075Y-88.575
X304.85Y-119.55
X305.0Y-124.4
X306.807Y-89.175
X307.1Y-119.85
X314.35Y-132.95
X337.4Y-122.7
X343.15Y-119.35
X343.45Y-124.55
X345.032Y-89.175
X345.25Y-119.45
X352.4Y-133.55
X360.36Y-98.4
X364.36Y-98.4
X375.9Y-123.4
X381.15Y-124.4
X381.25Y-119.25
X383.0Y-118.9
X383.082Y-89.2
X388.25Y-133.6
X144.41Y-151.77
X144.41Y-153.03
X145.16Y-150.74
X145.16Y-154.06
X146.36Y-150.35
X146.36Y-154.45
X147.69Y-150.35
X147.69Y-154.45
X149.03Y-150.35
X149.03Y-154.45
X150.36Y-150.35
X150.36Y-154.45
X151.56Y-150.74
X151.56Y-154.06
X152.31Y-151.77
X152.31Y-153.03
X154.41Y-151.77
X154.41Y-153.03
X155.16Y-150.74
X155.16Y-154.06
X156.36Y-150.35
X156.36Y-154.45
X157.69Y-150.35
X157.69Y-154.45
X159.03Y-150.35
X159.03Y-154.45
X160.36Y-150.35
X160.36Y-154.45
X161.56Y-150.74
X161.56Y-154.06
X162.31Y-151.77
X162.31Y-153.03
T3
X234.3Y-171.5
T4
X151.45Y-173.8
X153.36Y-173.8
X155.27Y-173.8
T5
X325.865Y-169.725
X325.865Y-172.265
X328.405Y-169.725
X328.405Y-172.265
X330.945Y-169.725
X330.945Y-172.265
X333.485Y-169.725
X333.485Y-172.265
X336.025Y-169.725
X336.025Y-172.265
X338.565Y-169.725
X338.565Y-172.265
T6
X223.75Y-181.0
X227.56Y-181.0
X231.37Y-181.0
X235.18Y-181.0
X238.99Y-181.0
X242.8Y-181.0
T7
X117.36Y-87.9
X117.36Y-95.52
X117.36Y-103.14
X119.8Y-87.9
X119.8Y-95.52
X119.8Y-103.14
X122.24Y-87.9
X122.24Y-95.52
X122.24Y-103.14
X117.36Y-130.4
X117.36Y-138.02
X117.36Y-145.64
X119.8Y-130.4
X119.8Y-138.02
X119.8Y-145.64
X122.24Y-130.4
X122.24Y-138.02
X122.24Y-145.64
T9
X254.106Y-89.662
X270.956Y-79.912
X270.956Y-99.412
X276.606Y-89.662
X292.206Y-89.662
X309.056Y-79.912
X309.056Y-99.412
X314.706Y-89.662
X177.906Y-89.662
X194.756Y-79.912
X194.756Y-99.412
X200.406Y-89.662
X216.006Y-89.662
X232.856Y-79.912
X232.856Y-99.412
X238.506Y-89.662
X215.646Y-125.222
X221.296Y-115.472
X221.296Y-134.972
X238.146Y-125.222
X329.946Y-125.222
X335.596Y-115.472
X335.596Y-134.972
X352.446Y-125.222
X177.546Y-125.422
X183.196Y-115.672
X183.196Y-135.172
X200.046Y-125.422
X291.846Y-125.222
X297.496Y-115.472
X297.496Y-134.972
X314.346Y-125.222
X253.746Y-125.222
X259.396Y-115.472
X259.396Y-134.972
X276.246Y-125.222
X368.406Y-89.662
X385.256Y-79.912
X385.256Y-99.412
X390.906Y-89.662
X330.306Y-89.662
X347.156Y-79.912
X347.156Y-99.412
X352.806Y-89.662
X368.046Y-125.222
X373.696Y-115.472
X373.696Y-134.972
X390.546Y-125.222
T10
X322.305Y-169.725
X342.025Y-169.725
T8
G00X150.36Y-152.4
M15
G01X146.36Y-152.4
M16
G05
G00X160.36Y-152.4
M15
G01X156.36Y-152.4
M16
G05
T0
M30
